<?xml version="1.0" encoding="iso-8859-1"?><!-- Generator: Adobe Illustrator 22.1.0, SVG Export Plug-In . SVG Version: 6.00 Build 0)  --><svg xmlns="http://www.w3.org/2000/svg" xmlns:xlink="http://www.w3.org/1999/xlink" viewBox="0 0 64 64" width="256px" height="256px"><g><ellipse style="fill:#B5C4E0;" cx="32" cy="32.174" rx="31" ry="18.174"/></g><g><path style="fill:#CED9ED;" d="M32,14C14.879,14,1,22.137,1,32.174s13.879,18.174,31,18.174s31-8.137,31-18.174S49.121,14,32,14z    M32,45.348c-15.322,0-26-6.942-26-13.174C6,25.943,16.678,19,32,19s26,6.943,26,13.174C58,38.405,47.322,45.348,32,45.348z"/></g><g><path style="fill:#8D6C9E;" d="M42.435,26.435l-2.733,14.826h3.566l0.71-4.043h2.219c4.645,0,7.172-1.076,8.117-5.062   c0.813-3.425-1.264-5.72-4.69-5.72H42.435z M46.786,34.522h-2.305l1.018-5.391h2.778c2.302,0,2.786,1.038,2.666,2.193   C50.634,34.297,48.78,34.522,46.786,34.522z"/></g><g><path style="fill:#8D6C9E;" d="M14.13,26.435l-2.733,14.826h3.566l0.71-4.043h2.219c4.645,0,7.172-1.076,8.117-5.062   c0.813-3.425-1.264-5.72-4.69-5.72H14.13z M18.481,34.522h-2.305l1.018-5.391h2.778c2.302,0,2.786,1.038,2.666,2.193   C22.329,34.297,20.476,34.522,18.481,34.522z"/></g><g><path style="fill:#8D6C9E;" d="M39.311,27.415c-0.762-0.698-2.104-0.98-4.105-0.98h-3.153l1.124-5.391H29.64l-3.379,16.174h3.538   l1.706-8.087h2.828c0.902,0,1.497,0.151,1.775,0.449c0.276,0.301,0.337,0.867,0.177,1.686l-1.291,5.952h3.593l1.399-6.44   C40.286,29.234,40.059,28.102,39.311,27.415z"/></g><g><path style="fill:#8D6C9F;" d="M32,51.348c-17.645,0-32-8.602-32-19.174S14.355,13,32,13c17.645,0,32,8.602,32,19.174   S49.645,51.348,32,51.348z M32,15C15.458,15,2,22.704,2,32.174s13.458,17.174,30,17.174s30-7.704,30-17.174S48.542,15,32,15z"/></g><g><g><g><path style="fill:#8D6C9F;" d="M58.693,50.667c-0.33,0-0.653-0.163-0.845-0.463l-1.074-1.687     c-0.297-0.466-0.159-1.084,0.307-1.381c0.464-0.296,1.083-0.16,1.381,0.307l1.074,1.687c0.297,0.466,0.159,1.084-0.307,1.381     C59.063,50.616,58.877,50.667,58.693,50.667z"/></g></g><g><g><path style="fill:#8D6C9F;" d="M54.446,53.004c-0.375,0-0.734-0.212-0.905-0.573l-0.854-1.809     c-0.235-0.499-0.021-1.096,0.478-1.331c0.501-0.237,1.095-0.021,1.331,0.478l0.854,1.809c0.235,0.499,0.021,1.096-0.478,1.331     C54.734,52.974,54.589,53.004,54.446,53.004z"/></g></g><g><g><path style="fill:#8D6C9F;" d="M49.969,54.817c-0.414,0-0.802-0.26-0.945-0.673l-0.654-1.891     c-0.181-0.522,0.097-1.092,0.618-1.272s1.091,0.097,1.272,0.618l0.654,1.891c0.181,0.522-0.097,1.092-0.618,1.272     C50.188,54.8,50.077,54.817,49.969,54.817z"/></g></g><g><g><path style="fill:#8D6C9F;" d="M45.344,56.171c-0.451,0-0.86-0.308-0.971-0.766l-0.47-1.944c-0.13-0.536,0.2-1.077,0.737-1.206     c0.529-0.131,1.076,0.2,1.206,0.737l0.47,1.944c0.13,0.536-0.2,1.077-0.737,1.206C45.501,56.162,45.422,56.171,45.344,56.171z"/></g></g><g><g><path style="fill:#8D6C9F;" d="M40.621,57.093c-0.487,0-0.914-0.356-0.988-0.853l-0.296-1.979     c-0.081-0.546,0.295-1.055,0.842-1.137c0.552-0.074,1.056,0.296,1.137,0.842l0.296,1.979c0.081,0.546-0.295,1.055-0.842,1.137     C40.72,57.089,40.67,57.093,40.621,57.093z"/></g></g><g><g><path style="fill:#8D6C9F;" d="M35.841,57.596c-0.522,0-0.963-0.406-0.997-0.936l-0.129-1.996     c-0.035-0.551,0.383-1.026,0.934-1.063c0.544-0.027,1.027,0.383,1.063,0.934l0.129,1.996c0.035,0.551-0.383,1.026-0.934,1.063     C35.885,57.595,35.862,57.596,35.841,57.596z"/></g></g></g><g><path style="fill:#8D6C9F;" d="M21.862,21.161c-0.448,0-0.856-0.304-0.97-0.759c-0.133-0.536,0.194-1.079,0.729-1.212   c1.345-0.334,2.766-0.618,4.224-0.845c0.547-0.084,1.057,0.289,1.142,0.834c0.085,0.546-0.289,1.057-0.834,1.142   c-1.4,0.218-2.762,0.49-4.049,0.81C22.023,21.152,21.942,21.161,21.862,21.161z"/></g><g><path style="fill:#8D6C9F;" d="M6.999,29.997c-0.163,0-0.328-0.04-0.481-0.124c-0.481-0.266-0.659-0.869-0.396-1.352   c0.109-0.2,2.767-4.925,11.424-8.091c0.516-0.191,1.092,0.077,1.282,0.596c0.19,0.519-0.077,1.093-0.596,1.282   c-7.884,2.883-10.334,7.133-10.357,7.175C7.692,29.812,7.35,29.997,6.999,29.997z"/></g></svg>