<svg xmlns="http://www.w3.org/2000/svg" viewBox="0 0 4661.82 5010.15"><defs><style>.a{fill:none;stroke:#fff;stroke-miterlimit:10;stroke-width:10px;}.b{fill:red;}.c{fill:#09c;}.d{fill:#f06;}.e{fill:#ff0;}.f{fill:#c60;}.g{fill:#093;}.h{fill:lime;}.i{fill:#006;}</style></defs><title>brain-color-3</title><path class="a" d="M4567.47,2893.88c-69.15-25.82-149.82,5.1-177.12,96.21-318-.24-296.13.48-297.36,0-19.77-7-289-290.68-305.74-295-8-2.08,25.91-1.34-605.8-2.21l-.07-186.27,1214.2-1.43c30.54,141.15,182.63,149.12,239.31,59.88,40.51-63.81,23.88-151.07-41.45-190.43-54.73-33-141.11-24.37-181.68,46.74-4.86,8.52-8.35,17.32-11.68,26.52l-1218.2-1.27-.52-176.09c673.29.07,621.19.87,624.69-.19,6.56-2-14.39,17.33,284.91-281.65l303.53.45c31.71,133.93,189,139.55,244.13,42.89,50.15-87.94-17.77-217.8-144.63-194.3-32.63,6.51-66.13,32.32-83.79,60.25-6.43,10.16-10.69,21.37-14.93,32.56-296.74.93-237,.77-306.89.9-24.88,0,2.57-38.85-304.22,280.53l-603,.93-.83-170.05c361.36-3,338.17-1.19,340.7-1.87,9-2.43,16.4-11.79,441.55-450.78l269.37.4c51.7,135.13,206.55,112.72,248.66,13.07,29.27-69.27-8.66-148.85-80.59-173.14-59.23-20-139.81,4.72-163.51,80.43-2.17,7-3.38,15.35-7,21.61-301.44-1.54-287.94-2.86-295.5,1.38-17.07,9.59-427.47,446.8-439.19,449.68-4.94,1.22-14.53,0-19.87-.06l-293.24-.93c-.17-273.28,2-252.86-6.36-279.65-.95-3-4.91-11.76-4.85-14.41.08-3.94,393.29-398.44,557-558.25,61.54-59.55,54.72-47.67,55.56-179l.47-205.72c83.25-28,114-105.48,88.76-171.65-28.42-74.45-112-102.3-176.05-72.94-98.28,45-98.55,173.49-16.14,226.57,7.36,4.75,42,15.46,44.39,19.61s.05,271.55-.61,302.23l-587,585c-64.65-50.7-75.12-44.22-256.92-44.09l-1.19-340.19c302.57-301.37,240.15-239.39,324.34-322.46,47.72-45.19,56-49.55,56.65-86.83l-.33-502.92C3390.29,303.8,3401,151.57,3296,93.62c-62.31-34.41-143.48-9.85-177.77,56.74-34.11,66.24-12.91,146.7,81.8,187.5,0,54,3.42,501.41.41,508.66-2.85,6.87-363.32,355.5-374.56,376.09s-5.65,67.26-5.7,90.89l-.14,276.25-171.32-.65c.23-111.31.86-528.07,1.4-529.36,2.7-6.49,20.48-21.08,26-26.68,280.44-282.42,243.64-237.45,253.45-253.39,4-6.58,3.81-15.94,3.85-23.42.19-27.42,5.52-157.33-8.61-172.63-11.25-12.17-32.63-14.84-44.7-1.21-11,12.44-8.27,15.1-8.52,148.92,0,5,1.68,18.82,0,23.06-2.35,6-278.2,268.45-281,283.81-.5,2.71-.4,84.43-.66,550.57l-172.06.16c0-.45.38-680.26.7-681.35,1.8-6.28,218.82-215.59,229-232.63,7-11.84,0-392.92,3.65-395.85,6.87-5.52,24.64-8.75,33.61-13.74,70.7-39.32,85.5-146,23-205.74-52-49.74-142-49.83-191.34,6.76-49.13,56.42-39.32,137.75,15.54,184.36,16.82,14.29,36.14,22.53,56.84,29.5l.15,371c-31.8,32.06-223.13,215.36-227.78,230.47-2,6.34-1.69-39.93-1.72,707.53l-171.48.26L2187.2,261c163-45.34,119.63-275.42-55.87-254.73-87.21,24.8-119.22,98.75-99.88,162.41,10,33,35.8,66.44,66.75,82.19l28.92,13.61.61,1323.6-183.27-.2c-.1-711.37.08-659.65-.43-662.28-3.34-17.29-64.46-71.14-80.62-87.37-237.94-241-238.8-240-240.34-246.09-3.89-15.44-.7-40.79-.85-57.3-.58-63.95-3.21-129.94.14-193.71,37.08-12.54,64.58-32.77,82.1-68.37,14-28.46,16.88-68.09,5.72-98.14-29-78-111.92-101.27-172.39-76.29-107.86,44.56-107.62,205.4,25.46,245.5.27,243.58.18,189.71.38,254.67.44,25.26-33.46-9.74,322.49,348.39l-.77,642.14c-75.37-.39-154.75-12.17-213.54,45.2-32.57,31.79-47.36,67.44-47.62,112.8l-.16,235.64c-349.7-1.45-333.88-1.12-334.33-1.39-13-7.69-27.6-26.44-39-37.53-177.79-177.81-145.13-144.72-177-178.3,42.3-134.83-85.6-218.75-182.88-164.45-61.17,34.12-87.52,110.53-51.1,174.63,38.21,67.28,120.08,85.69,183.83,47.76l16-9.28c11,11.18,217.66,222.43,219.92,223.5,3.51,1.64-14.53,1,365.2,2.71l-.32,170.69c-328.06-.55-268.92-.44-339.33-.61-23.72-.14-14.55,2.17-33.84-17.12-68.36-68.24-63.14-64.68-69.13-68.7-10.33-6.93-28.35.44-35.9,8.49-8.94,9.56-7.47,19.49-6.75,31.63,7.61,14.43,23.82,27.34,35.4,38.89,21.81,21.75,43.17,45.12,67.7,63.82l381.86-.16v181.86H1075.51c-70.57-137.69-235.83-101.43-258,21.92-26.37,158,215.52,224.65,263.13,37.36l543.48-1.24.52,185.58c-345.54-.05-277.81-.05-353.4,0-26.32,0-18.91-4.82-58.75,35-12.44,12.41-56.22,48.91-57.52,66.34-.6,8,3.36,21.65,9,27.47,6,6.18,14.79,8.53,23.3,8.3,19.88-.54,61.7-49.5,76.27-64.29,17-17.29,5.92-13,30.1-13.2,65-.42,2.27-.3,331.41-.39l.31,184.67c-353.35-.17-334.28-.39-339.34,1.64-10.73,4.32,4.43-8.59-243,238.45-76.32-57.14-156.75-39.11-199.32,17.38-41.85,55.52-33.2,141.33,34.4,184.36,63.49,40.43,148.2,17.95,183.44-41,33-55.16,10.71-99.18,13.45-108.77.13-.45,186.13-189.52,235.61-233.18l314.14.14c.39,163.68-9.93,226.1,49.23,285.16,54,53.91,120.31,49.57,190.94,48.79,4.93,0,11-1.11,15.38,1.18,1.59,451.59,3.62,404.84-4,412.74-326.58,322.94-306.88,299.86-319.11,325.41-6,13.83-4.26,11.07-3.6,320.29,0,10.53-1.9,25.21,2.23,34.91,14,32.76,55.11,24.74,59.68,0,4.53-24.56.62-57,.55-82.38l-.82-194.76c-.15-14.27-4.18-44.62.64-57,4.47-11.46,318.22-314.26,321.86-329.08,1.49-6.1-.54,32,1.17-430.16l192.63.08,1.18,1409c-89.25,30-116.14,103.72-90.67,175.42l14.2,30.74-793.33-1.33c48.28-182.42,69.25-378.19,28.74-564.28-27.79-127.7-89.1-276.71-216.81-309.71-32.31-8.36-23.88-5-349-5.77-142.64-.11-171,2-206.22-9.14C438.16,4030,369,3939,388.91,3859c19.6-78.76,83.55-162-.25-242.34-14.75-14.15-61.36-45.26-56.16-67.14,6.92-29.14,57.42-43,41.75-77.62-9.92-21.86-107.73-62.41-97.39-109.91,3.47-15.94,16.21-34.29,23.42-49.25,17.7-36.79,20.4-92.22.58-128.57-39.06-71.64-168.58-21.21-222.81-106-10.88-17-16.75-38.69-11.74-58.53,6.13-24.31,21.46-43.57,35.77-63.57,60.93-88.9,27.5-35.72,152.72-244.79,165.87-289.38,150.86-379.5,102.25-537.71-24.72-80.45-37.5-92.89-24.19-282.3,27.74-395,256.58-743.32,598.8-937.52,195.08-110.7,419.48-151,641.66-136,79.83,5.38,105,26.45,125.87-4.08,5.24-23.21-2.91-36.83-13.92-41.55-9.91-4.24-10.94-3.79-111.55-13.58C973.35,715.58,472.24,1108.15,322.64,1622c-53.43,183.56-59.08,411.62-47.57,471.8,14.46,75.55,46.17,146.83,55.17,223.57,18,153.86-155.8,408.23-250,566.48-19.7,31.38-45.58,61.33-61.83,94.41-33.84,68.9-8.22,170.12,129.85,209.22,23.85,6.75,88.22,7.54,102.23,27,7,9.73,5.31,23.15,4.56,34.53-2.39,36.61-21.17,60-32.35,93-11.94,35.31,1.7,72.69,25.49,99.63,15.91,18,34.42,32.63,53.57,47-16.72,21-35.87,42.26-32,71.26,7.58,56.44,88.38,94,99.68,133.54C383,3741,329,3807.78,324.7,3881.62c-3.23,55.61,30.63,139.83,103.28,192.12,86,61.86,151.93,50.64,256.12,50.64,373.72,0,355.81-.51,370.36,3.19,117.89,30,166.07,188.43,184,293.15,24.59,143.33,16.46,298.08-15.62,439.62-17.93,79-47,115.47-14.85,138.66,10.89,7.87-8.23,5.69,370.47,6.15,595.29-1.06,501.18.23,561.21-6.32,16.89-1.84,33.49-1.69,50.25-5.16,124.15-25.76,149.77-213.77.32-255.41l1.22-1405.8,164.55-.88c.38,696.13.39,551.32.14,735.5-.24,52-11.25,40,32.38,83.44l199.89,198,.17,375.13c-43.85,17.86-77.14,38.46-95.51,83.92-44.38,110,73.64,225.15,187.82,169.34,68.81-33.63,86.62-119.08,54.22-181.9-30.62-59.36-83-63.53-87.27-69.78-.31-.45,0,18.67,0-387.48,0-18.12,3.16-11.21-7.63-21.73-37.66-37-3.63-3.35-189.29-187.29-9.64-9.53-31-25.77-37.18-37.32-3.12-5.83,0-686.2.24-759.35,10.33-3.16,2-1.56,176-1.33.69,588.35.62,479.47.5,590.72-.08,29.23-5.47,16.82,15.17,37.53,22.31,22.38,242,242.65,268.59,269.12l.25,106.08c0,27.13-4.22,52.64,9.2,67.61,10,11.1,31.44,12.26,44.69-2.59,11.09-12.43,6.43-24.81,6.52-59.08v-137.3l-287.3-286.92.36-584.19,176-.63c.61,386.49.48,315.49.7,413,.12,31.51-4.48,24.51,16.21,47.73,125,128.77,364.32,365,365.27,366.92,2.91,5.85-.07,478.24-.31,528.41-135.23,39.2-128,202.45-30.33,249.69,71.49,34.59,156.44,2.3,184.6-64.65,29.9-71.06-2.94-149.54-71.51-177l-22.48-8.34-.68-554.65c-354-354.3-290.37-290.62-364-364.23-20.94-20.84-18.2-12-18.81-30l.16-407.71c165.12.73,166.39,6.67,223.65-23.86.68-.36,1.28-1.23,2-1.1,2.41.42,558.52,556.66,607.31,605.69,15.81,15.87,16.7-25.09,12.21,343.48-9.78,5.58-21.67,7.38-32.12,11.8-73.26,31-101.35,122-63.93,185.47,39.83,67.61,125,92.07,193.39,48.27,87.3-55.95,76.08-180.44-3.43-225.89-4.32-2.47-31.42-11.06-32.41-12.49-1.74-2.49-1.38-266.51-1.53-288.87-.14-20.08,3.59-51.65-1.52-70.26-4.09-14.89-39.72-41.9-635.79-641,39.12-67.07,31.21-49,30.82-266.78,331-.53,309.58-.5,310.57-.05,7.4,3.35,120.66,122.63,434.94,437.9,24.92,26,6.71,19.72,54.48,19.72l249.2-.73c12,37.88,25.46,69.48,62.28,89.42,60.86,33,147.07,16,182.59-55.07,35-70.12,2.88-148-57.33-177.84-66.89-33.15-150.67-9.1-185,84.81l-264.34-1.68-450-453.94-336.11-1.57c-4.53-9.9-1.45-32-1.44-43.37l.2-140.47c624.21.18,579.26-.55,582.57.64,11.38,4.1,292.12,291.85,299.28,295.42.89.44-16.14-.1,328,.56,26.09,84.88,104.22,117.62,170.09,94.47,125.6-44.17,116.21-208.06,6-249.21Zm-46.89-479.58c17.24.87,30.43,2.66,45.28,12.24,37.36,24.07,41,74.12,19,105.59-14.19,20.27-30.45,27.4-54.15,31.5-13.57-.83-24.79-1.77-36.87-8.46-61.33-34-60.14-123,26.76-140.86Zm-4.95-521.58c13.61.08,25.71.7,38.21,6.59,39.95,18.83,52.86,67.63,33.32,103.84-11.24,20.84-29.77,29.85-51.53,36-14.84,0-27.5-.15-41.43-6.22-58.58-25.5-65.27-116.57,21.43-140.19ZM4353,1481.58c17.49,1.07,32.45,2.36,47.37,12.68,34.49,23.83,39.36,72.14,16.89,102.09-15.42,20.55-32.46,26.47-56.64,29.66-15-1.06-26.91-1.81-40-9.77-57-34.59-42.58-123.13,32.41-134.66ZM3735.38,548.37c15.53-1,30-.83,44.43,6,59.42,28,58,111.36-10.78,135-101.15,12.08-123.9-109.12-33.65-140.94ZM3173.38,172c12.67-21,32.15-29.22,54.59-35.28,38-3.67,70.88,22.75,77.28,53.35,4.32,20.61.89,43.17-11.08,60.73s-29.72,26-50,30.11c-69.75,3.9-98-63.87-70.8-108.91Zm-622.71-47.81c9.67-23.1,26.5-33.43,48.58-42.51,13.8-.65,26.33-1.29,39.78,2.77,41.51,12.54,60.5,56.22,45,94.61-9.27,23-26.74,35.33-48.58,44.81-13.4,2.4-26.52,3.5-39.69-.92-38.72-13-61.61-59.35-45.11-98.76ZM1571.21,282.49c-59-19.07-78.73-104.87,3.71-135.75,94.22-8.29,117.13,109,27,137.44-10.17.54-20.91,1.49-30.75-1.69Zm-608.08,1501c-14.42.34-27.77-.27-41-6.61-52.7-25.2-62.52-109.85,23.24-134.14,15.8-.66,26.72.22,40.87,7.55,52.18,27,59.7,110-23.09,133.2Zm47.43,742.18c-12.71,22.56-28.32,30-51.81,37-16.89,0-31.8-.32-47.21-8.49-26.23-13.91-53.81-53.53-29-96,12.5-21.41,31.47-32.08,54.67-38.8,71.47-5.23,97.4,63.72,73.36,106.37ZM1006,3312.41c-13.72,19-29.67,24.7-51.92,28.32-87.54,5-112.11-121.84-9-141.89,16.5,1.19,32.94,3.27,46.83,13.11,28.43,20.11,40.89,63.33,14.12,100.47Zm1605.2,1470.2c85.46-4.47,119.85,123.85,15,148.42-13.7,0-25.45-.77-37.88-7.05-61-30.83-63.63-118.22,22.93-141.37Zm637.59,109c-14.43.53-26.66.91-40.08-5.58-19.31-9.35-37.16-26.09-43.47-47.12-5.4-18-3.89-41.77,5.05-58.51,11.47-21.47,30.6-30.12,52.59-36.75,96.69-9.53,125.11,117.6,25.91,148ZM2092.58,103.45c11-22.32,30.71-32.31,53.22-39.74,15.67-.74,28.4-.48,42.78,6.94,29.24,15.09,56.76,55.15,31.1,100.15-11.25,19.73-28.22,29.17-49.33,35.51-13.51.46-25.63,1-38.22-4.86C2092.23,182.8,2075.13,139,2092.58,103.45Zm135.18,4790.7c-9.46,22.79-24.42,33.76-46.39,42.94-13.81,1.86-28.84,2.88-42.17-1.72-32.11-11.06-57.46-53.85-42.19-91.87,9.6-23.91,25.74-35.48,48.32-45.28,13.49-1.66,29.58-2.12,42.61,2.28,35,11.84,56.64,53.14,39.82,93.65ZM3036,3271c-29.29,4.63-1240.9,1.18-1256.4.16-41.4-2.71-85.5-38.37-94.81-79.75-3.92-17.44-3-1447.7-2.91-1449.3,2.41-41.68,33.3-84.47,89.28-93.86,17.82-1.13,971.37-.54,1254.2-.75,46,1.85,82.47,31.13,93.73,67.87,7.45,24.32,3.88-65.11,5.08,1455.2-1.77,51.13-37.62,87-88.18,100.44ZM3786.38,4322c55.29,28.86,59.82,116.52-21.84,139.4-69.92,7.55-105.64-59.86-79.49-109.3,11.42-21.58,31.63-31.36,53.66-38.49,17.89-.73,31.27-.17,47.67,8.39Zm507-925.32c10.29-22.82,30.08-33.28,52-42.23,13.08-.86,26.4-1.35,38.83,3.45,37.59,14.51,58.77,58.11,38.89,102.64-9.44,21.13-30.2,31-50.43,38.81-12.55.67-25.95,2.25-37.77-2.88-44-19.08-57.89-63.44-41.5-99.79ZM4585.19,3053c-13.87,23.79-31.21,32.74-56.63,39.39-92,2.11-121-125.08-14.89-149.68,37.1-2.43,68.69,21.85,77,50.5,5.54,19.17,4.73,42.32-5.46,59.79Z"/><path class="a" d="M2953.87,1893.18c-5.4-25.83-25.92-51.9-47.67-65.73-29-18.45-58.31-14.26-113.13-14.26-913.62,0-833.6-2.27-857.43,3.28-44.45,10.34-76.4,49.3-81.46,91.62-2.15,18.06-1.21-106.53-.93,1109.6,2.13,17.26,1.64,13.49,2.38,18.54,6.26,37.72,44.69,74.9,87.81,80.14,5.85.71,892.44,3.81,934-2,38.69-6,77.36-41.93,80.12-90,.41-7.12-1.62-1121.4-3.65-1131.1Zm-55.12,1136.4c-5.16,14.91-17.26,24.59-31.23,30.65-971.44-.42-904.09,1-920.52-3.21-11.64-3-25.29-12.46-30.78-23.37-7.87-15.67-5.1-1085.3-5.09-1085.9.33-44.19-.19-56.69,35.9-75.54,14.83-1.83,872.74-1.2,873.26-1.2,32.88.1,54.6-5.94,72.53,24,12,20,6.92-30.52,8.16,1014.3.23,114,1.09,110.68-2.23,120.26Z"/><circle class="b" cx="953.59" cy="1713.07" r="70.5" transform="translate(-890.11 2379.95) rotate(-80.78)"/><circle class="c" cx="1589.33" cy="215.54" r="70.5"/><circle class="c" cx="4358.36" cy="1553.8" r="70.5"/><circle class="c" cx="2163.01" cy="4867.85" r="70.5"/><circle class="d" cx="2157.81" cy="135.01" r="70.5"/><circle class="d" cx="4523.22" cy="1965.94" r="70.5"/><circle class="d" cx="2617.71" cy="4856.77" r="70.5"/><circle class="e" cx="2617.31" cy="153.58" r="70.5"/><circle class="e" cx="4524.79" cy="2488.97" r="70.5"/><circle class="e" cx="3236.39" cy="4817.51" r="70.5"/><circle cx="3235.09" cy="208.72" r="70.5"/><circle cx="4520" cy="3017.56" r="70.5"/><circle class="f" cx="4358.36" cy="3427.09" r="70.5"/><circle cx="3750.74" cy="4387.76" r="70.5"/><circle class="g" cx="3750.74" cy="619.07" r="70.5"/><circle class="h" cx="946.07" cy="2490.89" r="70.5"/><circle class="i" cx="949.17" cy="3269.86" r="70.5"/></svg>