<svg xmlns="http://www.w3.org/2000/svg" viewBox="0 0 368.36 458.01"><defs><style>.a{fill:none;stroke:#fff;stroke-miterlimit:10;}</style></defs><title>headset-5</title><path class="a" d="M184.26,10.26a173.5,173.5,0,0,1,133.9,284,5,5,0,0,0,3.9,8.2,5.28,5.28,0,0,0,3.9-1.8c64.37-78.34,53-194-25.3-258.41s-194-53-258.42,25.3a183.6,183.6,0,0,0-6.28,225,5.1,5.1,0,0,0,7,1.1,5,5,0,0,0,1-7h0A173.6,173.6,0,0,1,184,10.26Z"/><path class="a" d="M103.06,263.56v-1.5a5,5,0,0,0-5-5h0c-20,0-34.9,26.3-34.9,59.3s15.4,59.3,35.2,59.3h1.1a5,5,0,0,0,5-5v-1Zm-30,52.8c0-23.2,8.7-43.4,20-48.2l.7,96.6C82.16,360.56,73.06,339.66,73.06,316.36Z"/><path class="a" d="M258.06,370.56a5,5,0,0,0,5,5h.6c20,0,35.2-26,35.2-59.2s-15.3-59-34.9-59.3h0a4.9,4.9,0,0,0-5,4.8h0a4.3,4.3,0,0,0,0,1.6l-.7,105.5A2.84,2.84,0,0,0,258.06,370.56Zm11.4-102.4c11.2,4.8,20,25,20,48.2s-9.1,44.2-20.8,48.4Z"/><path class="a" d="M362.86,282.36a5,5,0,0,0-5,5V394c0,1.4-6.4,33.7-34.1,35.9H200.26a21.31,21.31,0,0,0-18.6-10,18.9,18.9,0,0,0-4.8,37.5,19.27,19.27,0,0,0,4.8,0,20,20,0,0,0,21.2-17.7h121.3c28.8-2.2,41.1-30,43.7-45V287.36A5,5,0,0,0,362.86,282.36Zm-181,165a9.1,9.1,0,1,1-4.2-17.7h0a7.5,7.5,0,0,1,4.2,0,9,9,0,0,1,10.89,6.58v0a9.1,9.1,0,0,1-6.7,10.9A9.92,9.92,0,0,1,181.86,447.36Z"/></svg>