<svg xmlns="http://www.w3.org/2000/svg" viewBox="0 0 36.82 45.83"><defs><style>.a{fill:none;stroke:#fff;stroke-miterlimit:10;stroke-width:0.1px;}</style></defs><title>headset-2</title><path class="a" d="M18.4,1.06a17.35,17.35,0,0,1,13.39,28.4.5.5,0,0,0,.39.82.53.53,0,0,0,.39-.18,18.36,18.36,0,1,0-29-.81.51.51,0,0,0,.7.11.5.5,0,0,0,.1-.7h0a17.36,17.36,0,0,1,14-27.64Z"/><path class="a" d="M10.28,26.39v-.15a.5.5,0,0,0-.5-.5h0c-2,0-3.49,2.63-3.49,5.93S7.83,37.6,9.81,37.6h.11a.5.5,0,0,0,.5-.5V37Zm-3,5.28c0-2.32.87-4.34,2-4.82l.07,9.66C8.19,36.09,7.28,34,7.28,31.67Z"/><path class="a" d="M25.78,37.09a.5.5,0,0,0,.5.5h.06c2,0,3.52-2.6,3.52-5.92s-1.53-5.9-3.49-5.93h0a.49.49,0,0,0-.5.48h0a.43.43,0,0,0,0,.16L25.8,36.93A.29.29,0,0,0,25.78,37.09Zm1.14-10.24c1.12.48,2,2.5,2,4.82s-.91,4.42-2.08,4.84Z"/><path class="a" d="M36.26,28.27a.5.5,0,0,0-.5.5V39.43c0,.14-.64,3.37-3.41,3.59H20a2.13,2.13,0,0,0-1.86-1,1.89,1.89,0,0,0-.48,3.75,1.93,1.93,0,0,0,.48,0A2,2,0,0,0,20.26,44H32.39c2.88-.22,4.11-3,4.37-4.5V28.77A.5.5,0,0,0,36.26,28.27Zm-18.1,16.5A.9.9,0,1,1,17.74,43a.75.75,0,0,1,.42,0,.9.9,0,0,1,1.09.66.91.91,0,0,1-.67,1.09A1,1,0,0,1,18.16,44.77Z"/></svg>