<svg xmlns="http://www.w3.org/2000/svg" viewBox="0 0 550.18 449.66"><defs><style>.a,.b,.c{fill:none;stroke-linecap:round;}.a,.b,.c,.d{stroke:#fff;}.a{stroke-width:0.71px;}.b{stroke-width:1.13px;}.c{stroke-width:1.7px;}.d{stroke-miterlimit:10;}</style></defs><title>manufacturing-mc</title><path class="a" d="M403.54,100.77c0-.47-.85-.86-1.9-.86s-1.89.39-1.89.86.84.86,1.89.86,1.9-.39,1.9-.86"/><path class="b" d="M401,99.62c-6.54.94-13,2.56-14.59,5.49-2.56,4.64-3.6,8.43-3.41,17.71m18-23.2c5.68-.29,14.21,2.27,17.33,4.17s4.93,2.36,4.55,4.83-.19,7.1.76,8"/><path class="a" d="M420.72,108c-3.13-2-9.57-5.87-7.87-1.13s4,5.21,4.55,5.11M383,122.82c1,.48,7.3,2,21.22,1,4.83-.57,18.38-1.9,19.42-7.11"/><path class="b" d="M383.21,122l-10.42,6.16s-1.61,1.61,1.8,2.94a26.33,26.33,0,0,0,14.87.85c5.21-1.42,13.16-4.36,15.63-8.24"/><path class="a" d="M412.76,124.9c.47-.75.85-1.61,2.55-.28s2.66,3.79,2,4.74-1.42,2.55-1.8,1.23.1-2.94-.94-2.28m1.52-6.54a6.39,6.39,0,0,1,3.6,6.26c-.19,1.89-.67,3.78-.57,4.16s-1.9,3.13-3.6,2.28"/><path class="b" d="M423.66,117.23c1.13-.19,1.61-.19,1.8,2.18s.09,6.92.19,7.68a11.66,11.66,0,0,0,1.13,3.5m-.39-1.6c1.71-.57,4.36-.57,1.71.85s-7.49,7.39-11.09,12.51a75.32,75.32,0,0,1-10.12,11.72m22.25-25.55c1.71,1.13,5.5,3.22,4,5.49"/><path class="a" d="M389.63,137.37c1.1,1.61,2.3,3.41,4.21,3.31s2.94-.63,2.6-2.3c-.5-2.5-8.41-3.41-6.81-1m6.82,1,13.83-15-13.63,15.74"/><path class="b" d="M389.63,137.37c-1.49-1-6.55-2.18-5.71-1.13s3.16,4.22,5.91,4.43m.52-2.11c-.1,1.47-.31,5.16.11,6.32a2,2,0,0,0,2.85,1.27,5.76,5.76,0,0,0,1.79-1.58c.42-.43,3.26-1.16,2.63-2.53"/><path class="a" d="M398.26,144c1.05.43,1.47,2.32,2.21,2.53s2.85,1.06,2.95,1.59.95,2.74,1.37,2.63"/><path class="b" d="M394.78,145.51l.31,2,1.37.84s-.31,1.37.32,1.9a5.58,5.58,0,0,0,2.11.74,2.81,2.81,0,0,0,1.58,2.42c1.58.74,3.26,1.05,6.43.63"/><path class="a" d="M396.47,148.36l2.74-1,.11,1.16-1.06,1.26"/><path class="b" d="M384.77,133.29a4.59,4.59,0,0,0,2.63,3.17"/><path class="a" d="M368,140.66c-2.5-2.59-5.68.85-6.31,3.59s.42,4.64,1.68,4"/><path class="b" d="M365.87,139.92a73.38,73.38,0,0,0,12.22,5.56c2.13.56,11.11,2.59,14.26,5-2.87,6.85-7.41,13.52-5.09,16.3s3,.09,5.55,2.22m0,0c3.06,2,5.1,6.11,5.47,10.93m-36.11-33c3.89,2,6.29,4.26,10.37,9.44s9.44,8.52,14.26,9.08m5.56-15,6.88,1.78m-31.57-12.09c-3.8-2.49-4.59-2.62-4.79-3.67s-3.08-5.31-6.42-2.1m7.28,3.35c0-2,.92-4.06-.2-5.44s-2.16-2.75-4.78-2.23m2.89.39c-.14-1.9.91-3-1.64-4.59a15.5,15.5,0,0,1-4.86-4.46c-.46-.85-1.77-2.49-5.18-2a20.91,20.91,0,0,0-5.24,1.38,21.91,21.91,0,0,1-3.94.32c-1-.06-1.9.33-1.64,1.51s.52,1.71,2.43,1.58,4.32-.66,5.44,0,2,2,1.7,2.82-.91,2.23-1.64,2.29M349.9,128c-.06,1.38-1.37,2.16-2.82,1.31a9.63,9.63,0,0,0-4.65-1.57c-1.58,0-3.35.46-3.41,1.84s.92,2.09,2.62,2.29,2.43.2,3.61,1.84,3.8,6.88,6.75,6.75c3.28,2.56,8.46,10,10.95,8.07"/><path class="a" d="M354.41,137s-1.58,2.1-1.58,3M341,117.88a2.53,2.53,0,0,0,1-4.88"/><path class="c" d="M342,113a2.53,2.53,0,0,0-1.05,4.89"/><path class="d" d="M343.09,114.23c-.26-.48-.78-.3-1.23-.39l.35-1.66c.61.13,1.05,1,1.4,1.66l-.53.4"/><path class="d" d="M341.17,117.05c.37.09,1,.39,1.28.15l.31.57c-.63.49-1.18,1.11-1.95,1l.35-1.66"/><path class="a" d="M342.87,127.74a2.74,2.74,0,0,0,.53-1.15,2.56,2.56,0,0,0-.76-2.51m-2.4,0a2.7,2.7,0,0,0-1,1.6,2.55,2.55,0,0,0,.75,2.49m-.73-5a2.43,2.43,0,0,0-2.19,2,2.34,2.34,0,0,0,1.55,2.89m-.24,1.12a2.85,2.85,0,0,0,.63.06m.05-7.22a3.6,3.6,0,0,0-2.94,3,3.4,3.4,0,0,0,2.26,4.21m.24-1.13,1.1.24M341,106.25a2.53,2.53,0,0,0,1-4.88"/><path class="c" d="M342,101.37a2.53,2.53,0,0,0-1.05,4.89"/><path class="d" d="M343.09,102.6c-.26-.48-.78-.3-1.23-.39l.35-1.66c.61.13,1.05,1,1.4,1.66l-.53.4"/><path class="d" d="M341.17,105.42c.37.09,1,.38,1.28.15l.31.57c-.63.49-1.18,1.11-1.95,1l.35-1.66"/><path class="a" d="M333.65,118a2.53,2.53,0,0,0,1-4.88"/><path class="c" d="M334.7,113.09a2.53,2.53,0,0,0-1.05,4.89"/><path class="d" d="M335.75,114.32c-.26-.48-.78-.3-1.23-.39l.35-1.66c.61.13,1.05,1,1.4,1.66l-.53.4"/><path class="d" d="M333.83,117.14c.37.09,1,.38,1.28.15l.31.57c-.63.49-1.18,1.11-1.95,1l.35-1.66"/><path class="a" d="M333.65,106.34a2.53,2.53,0,0,0,1-4.88"/><path class="c" d="M334.7,101.46a2.53,2.53,0,0,0-1.05,4.89"/><path class="d" d="M335.75,102.68c-.26-.48-.78-.3-1.23-.39l.35-1.66c.61.13,1.05,1,1.4,1.65l-.53.4"/><path class="d" d="M333.83,105.51c.37.08,1,.38,1.28.15l.31.57c-.63.49-1.18,1.11-1.95,1l.35-1.66"/><path class="c" d="M371.46,117.27c2.53.55,5.11-1.43,5.75-4.42s-.9-5.85-3.44-6.39"/><path class="a" d="M373.78,106.45c-2.54-.54-5.11,1.44-5.75,4.43s.89,5.85,3.43,6.39"/><path class="d" d="M373.6,107.28a4,4,0,0,0-3.26.35l-.31-.58c1.2-.92,2.46-1.74,3.92-1.43l-.36,1.66"/><path class="d" d="M368.81,114.79a3.59,3.59,0,0,0,2.82,1.65l-.35,1.66c-1.25-.26-2.28-1.58-3-2.91l.52-.4"/><path class="c" d="M374.48,106.76l-.11,0"/><path class="a" d="M374.37,106.74a4.42,4.42,0,0,0-3.75,1m-.69.68a6.37,6.37,0,0,0-1.32,2.73,5.45,5.45,0,0,0,2.43,6"/><path class="d" d="M374.19,107.57a4,4,0,0,0-3.26.35l-.31-.58c1.2-.92,2.46-1.74,3.92-1.43l-.36,1.66"/><path class="a" d="M406.9,154.05l3.33,6.7s13-29.67,22.89-26.75"/><path class="b" d="M433.13,134c6.63,3.28,9.48,8.61,12.32,11.46s7.12,5.33,8.9,17.07,1.06,30.24.35,37.71-5.34,16.36-2.85,18.85,4.27,11-2.49,13.88"/><path class="a" d="M449.36,233l-5,1.43m-22.56,3.22s-11.24.69-14.8,1-9.24,1.42-9.24-.36"/><path class="b" d="M397.78,238.3a69.94,69.94,0,0,1-4.27-33.79c1.42-10.32,2.13-19.92,7.82-32.73m-3.56,66.53,1.07,7.11"/><path class="a" d="M398.85,245.41s16.53-1.82,21.59-1.82M403,250s-4.14,7.82,9.2,9.2"/><path class="b" d="M398.85,245.41c-2.8,10.6-5.1,28.55-4.64,32.69s-5.52,40-6,45.55-3.68,13.81-2.76,18,3.68,9.2,4.14,12-.46,23.46-1.38,29-.92,21.63.46,26.23-4.6,9.67-3.22,12.43"/><path class="a" d="M386.85,423.51c3.68,1.84,6.9,4.14,10.58,6s6.9,3.23,11,3.23,10.59,1.84,12.43-.93"/><path class="b" d="M420.9,431.79c.92-8.74-.46-7.82.46-12a33.37,33.37,0,0,0,.46-11.51,62,62,0,0,1-.92-23c1.84-11.51,1.38-25.31,1.84-31.29s-1.84-8.75-.92-12,2.76-6,5.06-14.26,1.84-16.11,4.6-21.17,6-12,6-16.57m-13.33,120.1c5.52,0,11.51,0,13.35-2.76s.92-4.6-.46-9.66,4.59-45.76,1.84-62.59c-3.68-22.54,1.84-43.25,2.3-48.77m0,0c5.06-9.67,9.66-14.27,10.58-24.39s1.45-12.39-.46-20.71L449.36,233"/><path class="a" d="M450.56,238.15l-.2-.08-10.59,3.68m-1.85,11.05c.46-.46,6,2.76,9.67-.46m-36.35,48.77c-2.3,4.6-1.84,17.49-6,25.77s-1.38,21.17-1.38,21.17m.92,30.83c0,1.38,0,27.61-.46,30.83s3.69,16.56,2.77,18.4m11-174.27c2.12,1.48,8.49,4.24,10.19,4.46s.85,1.69,0,3.39a12.89,12.89,0,0,0-1.49,4.68,16.47,16.47,0,0,0,.85,4.24,28.52,28.52,0,0,1-1.27,7.44c-.64,1.27-2.76,1.91-2.12,3.82s.42,2.34.21,3,.85,1.28,1.27,1.28,5.31,2.12,4,3.82,0,3-3.19,2.12-6.58,4.46-12.95-.42M417,294c.85,1.27-1.07,4.25-3.19,2.12s-2.76-4-4.25-4.88-3.61-3.61-3.61-5.74.64-4.24.64-5.31-.43-4.46.64-7,1.91-1.92,2.55-4.46a8.72,8.72,0,0,1,2.54-4.68c1.07-1.06,2.55-9.55,4.25-11.47M413.4,270.2s11.26,2.34,6.59,3m-3.82-8.28s10.19,6.58,11.25,3.82m22.05-65.42c-5.49-1.76-8-.39-12.74-.59s-6.67-1-10.39-1.37-15.69,5.1-3.14,6.86,7.84.79,8,.79m-13.53-3.13c.59-18-2.75-22-3.14-28s-2.55-7.06-2-9.6m4.12-9.22c4.31-3.14,12.74-4.9,16.27-4.9s10.59,6.66,12.55,9.8m1.37,8.63s.78,28,2.55,30.78m-20.58-1.37c.59,2.35,2.35,4.31,2.35,7.05s-3.92,17.06-6.08,22.35-4,20.16-7.09,22.53m30.42-50.18c.4,2.36,3.34,4.32,1.18,10.78s-6.08,19.61-9,24.31-11.24,16.34-12.38,19.54"/><path class="b" d="M386.85,423.51a63.59,63.59,0,0,1-12.44,7.76c-2.66,1.33-10.19,1.77-9.75,6.2s2.22,8,8,8.42,20.37,0,24.8-2.66,7.09-4.43,8-3.1,12,2.66,14.61,0,.87-8.34.87-8.34m.19-6.57c6.2,4,7,5.55,12.23,5.17,3.95-.3,4.32-3.16,4.43-6.21.17-4.87-1.29-15.87-1.29-15.87"/><path class="a" d="M385.47,421.21s-.27,2,.46,2.93M368,443.1a53,53,0,0,0,31.63-3.4m7.21-2.89c5.15,1.14,14.63,1,14.53-1.44M437,424.22c-1,1.82-5.37,3.19-9.92-.09M313.37,37.48c-1.82,0-3.3,1.83-3.3,4.08s1.48,4.08,3.3,4.08,3.29-1.83,3.29-4.08-1.48-4.08-3.3-4.08m0-6.35c-4.66,0-8.43,4.67-8.43,10.43S308.7,52,313.36,52s8.44-4.67,8.44-10.44S318,31.13,313.36,31.13m-2.92-.39c-4.66,0-8.44,4.68-8.44,10.44s3.78,10.44,8.44,10.44m0-20.88,2.93.39m-2.93,20.49,2.93.38m0-32.89c-10,0-18.15,10.05-18.15,22.45S303.34,64,313.36,64,331.51,54,331.51,41.56s-8.12-22.45-18.15-22.45m0,2.32c-9,0-16.28,9-16.28,20.13s7.29,20.14,16.28,20.14,16.27-9,16.27-20.14-7.29-20.13-16.28-20.13m-4.09,39.62h.53c9,0,16.27-9,16.27-20.14,0-9.32-5.12-17.16-12.18-19.48m-.54-5.7c-11.52,0-20.87,11.56-20.87,25.82s9.35,25.82,20.87,25.82,20.87-11.56,20.87-25.82-9.34-25.82-20.87-25.82m21.87,28.45c.07-.92.11-1.84.1-2.63,0-15-9.75-27.08-21.83-27.18"/><path class="c" d="M209.82,15.55c-8.36,3-12.32,13.22-8.86,22.73S214,53,222.36,50"/><path class="a" d="M222.36,50c8.35-3,12.32-13.22,8.85-22.73s-13-14.76-21.39-11.72"/><path class="d" d="M222.07,49.2a14.72,14.72,0,0,0,8.86-8.3l.58.32c-1.68,4.31-4.49,8-8.86,9.58l-.58-1.6"/><path class="d" d="M222.23,17a14.31,14.31,0,0,0-12.12-.66l-.59-1.6c3.95-1.43,8.69-.69,12.95,1.64l-.24.62"/><path class="a" d="M209.82,15.55c-8.36,3-12.32,13.22-8.86,22.73S214,53,222.36,50s12.32-13.22,8.86-22.73-13.05-14.76-21.4-11.72m.81,2.22c-7.28,2.65-10.74,11.52-7.72,19.81s11.36,12.85,18.64,10.2,10.73-11.51,7.72-19.8-11.38-12.86-18.65-10.21m2.9,8c-3.41,1.24-5,5.38-3.61,9.26s5.31,6,8.72,4.78,5-5.39,3.61-9.27-5.31-6-8.72-4.77m1,22.49a12.26,12.26,0,0,0,4-.75c7.28-2.65,10.73-11.52,7.72-19.8A16.44,16.44,0,0,0,214.67,17m-4.08,8.44c-3.41,1.24-5,5.39-3.61,9.27a7.58,7.58,0,0,0,6.14,5.1m.06-14.69a5.77,5.77,0,0,0-2.59.32m5.53,0-2.94-.28m2.88,15-2.95-.28m100.44-24.1-98.68-1.05m-5.45-.21c-6.82,2.49-10.89,9.45-10.73,17.26m16.06-18.17a15.05,15.05,0,0,0-5.33.91m104.09-.1-98.76-.81M199.7,31.9l4.53,195.56m131-183.27L322.52,220.66M203.51,14.6c-6.82,2.49-10.89,9.45-10.73,17.27m16.06-18.18a15.05,15.05,0,0,0-5.33.91M192.78,31.87l4.88,193.82m11.19-212,6.85-.27M303,15.63c-10.79,1.25-18.9,12.46-18.93,25.71,0,14.07,9.1,25.51,20.44,25.82m0,0,8.45.22M143.16,40c2.14-.08,3.69-5,3.46-11.08s-2.14-10.86-4.28-10.78-3.69,5-3.46,11.07S141,40.08,143.16,40m113.52-3.84-18.23-1.45m-47-3.75-23.2-1.85M143.81,43.34c3.84-.15,6.7-6.75,6.4-14.74s-3.66-14.36-7.49-14.22-6.7,6.74-6.4,14.74,3.65,14.36,7.49,14.22m1.38-9.68c.94,0,1.62-2.22,1.52-4.86s-.94-4.77-1.88-4.73-1.61,2.21-1.51,4.85,1,4.77,1.88,4.74M143.89,25l-3.84-4.48m4.48,3.65-3.41-5.33m3,13.79-3.4,5.14m4.11-4.22-3,5.87m7.79-22.51v6.83m0,12v6.69m0-25.47c0-3.25-.59-4-1-4-1.36,0-1.52,2.68-1.59,4.17m109,33.68-17.66-1.2M230.51,49l-5.45-.37m-33.85-2.3-22.82-1.55m-7.63-.52L157,44m99.11,1.76-17.57-1.19m-7.91-.54-.87-.06M191,41.38l-22.73-1.55m-7.42-.5-3.94-.27m99.4-10-17.85-1.5m-47.11-4-23.69-2M160,20.91l-3.27-.28m99.66,3.93L238.56,23m-8-.69-2.1-.18M191.38,19l-23.87-2.06M160,16.24l-3.43-.3M256.64,38.71,238.4,37.25m-47-3.74-23.48-1.88m-.59,14.84L160.93,46m-5.18-.35-7.43-.51m50.72-28-7.85-.7m-24.65-2-6.3-.55m-4.53-.39-7.1-.61m8,4.57L157,44.05m-.39-26.55c0-3.26-.59-4-1-4h0m5.61,4.36.92,25.32m-.92-25.32c0-3.25-.59-4-1-4-.86,0-1.24,1.06-1.42,2.21m8.82,2.33.87,25.42m-.87-25.42c0-3.23-.59-4-1-4m-17,27.88c0,1.31-.08,2.89-1.17,2.79s-1.5-1.06-1.4-3.63m10,1.31c0,1.31-.09,2.89-1.17,2.79h0m4.46-11.87c.49,0,.83-1.72.75-3.8s-.54-3.76-1-3.74m.29,7.54-3.4-.27M160,26.21,156.73,26m1.86-5.18.14,5.33m.19,7.52.13,5.56m.88-23c.67.1.94,4.61,0,4.69m.86,18.38c.67.1.91,4.93,0,5m1.32-1.09c0,1.31-.08,2.89-1.17,2.79-.77-.07-1.21-.58-1.36-1.78m8.87-.58c0,1.31-.08,2.89-1.17,2.79h0m33,1.53a16,16,0,0,0,10.16,3.21m0,0,7.67-.32M191.3,23.62c.37-.2.64-1.2.65-2.35s-.27-2.16-.63-2.35m1.39,2.2c0-2.61-.68-4.66-1.51-4.67-.56,0-1.06.94-1.33,2.37m1.31,27.51c.43,0,.78-1.1.79-2.45s-.34-2.45-.77-2.45m65.1,12.09c.91,0,1.66-2.32,1.68-5.18v-.17m-3.13,2.55c.28,1.76.85,2.78,1.45,2.8m-65-20c.24,0,.43-.6.44-1.35s-.19-1.35-.43-1.35a.21.21,0,0,0-.13.07m0,2.54a.2.2,0,0,0,.15.09m-1.67-10.09,0,7.33m0,2.55,0,7.92m3.17-20.16.12,22.6m-1.68,5.35,2.14,0m63-20c.36-.19.61-1.15.62-2.25s-.25-2.08-.6-2.27m1.45,1.91c0-2.5-.66-4.48-1.45-4.48-.54,0-1,.9-1.28,2.27M230.57,49c.29,0,.54-1.06.54-2.38s-.22-2.4-.52-2.4m7.08-5.68c.46,0,.85-1.17.85-2.62s-.36-2.63-.82-2.64M254.82,29l0,7.06m0,2.55,0,7.27m3-19.36.12,21.7m-1.25-9.45c.22,0,.41-.58.41-1.29s-.17-1.29-.4-1.3a.19.19,0,0,0-.13.07m0,2.44a.19.19,0,0,0,.14.08m-19-.22L232,38m5.69-4.8-5.41-.54m5.11,10.56.07-4.77m.07-5.26.06-4m-.2,14-5.68-.41m5.86-14.07-5.46-.4m-41,20.69c.92,0,1.67-2.32,1.68-5.18v-.17m-3.13,2.55c.29,1.76.85,2.78,1.45,2.8m65.15,1.61c.42,0,.76-1,.76-2.35s-.32-2.35-.73-2.35m-18.72,4.61c.63,0,1.15-1.61,1.16-3.6s-.49-3.6-1.13-3.61m0,7.21-7-.41m0,0c.63,0,1.16-1.61,1.17-3.6s-.5-3.61-1.13-3.61m0,7.21s-.49-.09-.72-1.18m1.07-22.42a7.74,7.74,0,0,0,.2-1.81c0-1.32-.23-2.39-.52-2.39m7-.8-7.34-.48m7.3,7.68c.63,0,1.16-1.6,1.17-3.59s-.5-3.61-1.13-3.61m-6.34,6a8.35,8.35,0,0,0,.44-2.8c0-2-.5-3.6-1.13-3.61m-.16-.07c-.67-.05-1,.32-1.25,1.12M270.84,54a11.39,11.39,0,0,0,.75-4.47m-.17-21.69a7.77,7.77,0,0,0-.9-4.14m.89,4.13.12,21.71M266.9,21.2l-7.49-.39m-4.13,2.53v-5H259l13.24-2.69m-17,2.69,13.24-2.69M272,31.42s6.12,2.11,7.4,2.83,1.62,2.06,1.62,5.9m-6.8,14.63,5.95,1.54s1.92,1-.58,3.84M270.84,54s-1.25,0-1.44,5.22m.58,7.67,8.63.39s7.3-1.54,7.3-14.59m-.76-36.46.19,9,1.53,2.88M275.16,17.55V22M274,24.46s7.3.77,7.3.57,2.3-.76,2.88,3.65m-12.78,7c2.47.71,5.69,1.8,5.87,3.13.38,2.77-1.58,3.33-6,3.71m-16.44,8.16c.75,4.23,4.41,6.94,4.88,2.69M198.64,30.84l4.49,196.06m60.12-27.07c-9.61,1.38-17.38,9.34-20,19.48-3.37,13.5,3.51,26.84,15.36,29.79s24.18-5.59,27.55-19.1c3-12-2.14-23.94-11.8-28.53m-11.15-3c-10.15,1.43-18.38,9.83-21.12,20.54-3.55,14.24,3.7,28.31,16.19,31.42s25.5-5.9,29.05-20.14c3.22-12.9-2.44-25.66-12.94-30.31m-13.6,34.1a2.37,2.37,0,1,0,1.43,2.78,2.21,2.21,0,0,0-1.43-2.78m-6-10.46a2.37,2.37,0,1,0,1.44,2.78,2.22,2.22,0,0,0-1.44-2.78m5.23-12a2.38,2.38,0,1,0,1.43,2.78,2.21,2.21,0,0,0-1.43-2.78m16.8,9.34a2.38,2.38,0,1,0,1.43,2.79,2.23,2.23,0,0,0-1.43-2.79m-5.46,2.86a2.37,2.37,0,1,0,1.43,2.78,2.23,2.23,0,0,0-1.43-2.78m.25,8.59a2.37,2.37,0,1,0,1.43,2.78,2.21,2.21,0,0,0-1.43-2.78m-8.33-12a4.84,4.84,0,0,0-2.5,3.2,4.39,4.39,0,0,0,2.52,5.34m0,.36.05-31.27m4.06-.09.12,32m-4.23-.62,4.23.62,6.49-.49m0-.05.37-31.82m-3,26.22a2.37,2.37,0,1,0,1.43,2.78,2.21,2.21,0,0,0-1.43-2.78m-.38-9.69a1.31,1.31,0,1,0,.8,1.54,1.23,1.23,0,0,0-.8-1.54m.08-5.06a1.24,1.24,0,0,0-1.43,1,1.15,1.15,0,1,0,1.43-1m0-5.35a1.31,1.31,0,1,0,.79,1.54,1.23,1.23,0,0,0-.79-1.54m0-5.07a1.31,1.31,0,0,0-.63,2.52,1.31,1.31,0,0,0,.64-2.52m-44.63,26.5A2.38,2.38,0,1,0,228,228a2.24,2.24,0,0,0-1.43-2.79"/><path class="b" d="M309.86,225.75l5.65-.41"/><path class="a" d="M222,232.08,220.89,140"/><path class="b" d="M229.57,231.53l-.37-31.08M229,178.5l-.46-39.25M222,232.09l-3.83-.84-.05-33.68"/><path class="a" d="M223,200.8,222.75,179"/><path class="b" d="M222.75,179l-1.4-.19"/><path class="c" d="M221.35,178.79l96.4-3.76M223,200.81l-1.48-.29m1.48.29,94.2-5.36.59-20.43"/><path class="b" d="M228.48,139.25l-23.56-.73m13.18,59-.43-58.62m-12.76-.42.72,70.7m43.56-9.44c-7.67,4.26-12.65,12.37-13.87,21.19m.17,8.92c1.74,9.9,8.33,17,16.66,19.16"/><path class="a" d="M218.12,209c-6.54,1.23-11.63,6.51-13.32,13.13-2.32,9.28,2.73,18.53,11.27,20.66s17.33-3.67,19.65-12.95a17.34,17.34,0,0,0-6.39-18.43m-26.26,15.5c.11,9.56,6.94,17,15.68,17.53m-21.07-18.71A17.88,17.88,0,0,0,206,241m53.47,10.77a22,22,0,0,0,11.7-1.13M210.06,243l49.44,8.75m.1-1.05L217,242.94m-11-2a16.68,16.68,0,0,0,4,2M246,246.4l-21.69-4m-6.18-31.06a15.05,15.05,0,0,0-11.17,11.24c-2,8,2.36,15.94,9.7,17.77s14.92-3.15,16.91-11.14a15,15,0,0,0-4.19-14.82m83.46,4.83a2.11,2.11,0,1,0,1.27,2.46,2,2,0,0,0-1.27-2.46"/><path class="b" d="M315.54,225.34l0-29.8m-9.67,29.31,0-28.76"/><path class="a" d="M305.38,204.86a15.48,15.48,0,0,0-11.82,11.65c-2.05,8.23,2.43,16.43,10,18.32s15.38-3.25,17.43-11.48A15.37,15.37,0,0,0,315.33,207m-3.55,28.41A17.09,17.09,0,0,0,322.43,221m-16.61-18.2c-8-1.59-15.91,3.93-18.05,12.47-.11.42-.2.85-.26,1.21m.69,8.75a14.72,14.72,0,0,0,11.39,9.9m-4.92-1.81a14.88,14.88,0,0,0,3.58,1.79m7.14-28a13.35,13.35,0,0,0-9.91,10c-1.77,7.08,2.09,14.14,8.6,15.77s13.24-2.8,15-9.89a13.38,13.38,0,0,0-3.72-13.15m-5.53,16,0-28.59M334.18,44.11,321.46,220.58m-50.24,30.06,40.58-15.22m-40.58,14.14,40.58-15.22m-29.29,6.41L297.89,235"/><path class="b" d="M309.82,225.74l-4.07-.89"/><path class="a" d="M308.68,235.34l-10.44-.29"/><path class="b" d="M274.45,175.34l-.58-37.22m-45,36.18,21.93-.86m23.57-.92,18-.05"/><path class="a" d="M268.93,176.5l-.59-37.22"/><path class="b" d="M250.89,177.38l-.44-28.21"/><path class="a" d="M250.6,150.91l-6.69-.29"/><path class="b" d="M277.36,171.85l-.29-67.24m-6.7-42.7v41"/><path class="a" d="M270.38,102.92c0,5.82-2,20.66-2,23.27s1.46,6.4,6.69,10.18M262.24,58.13l.29,60.21m.29,4.37s-.29,8.72,5.53,12.79"/><path class="b" d="M257,55.51l.29,39.56s-.87,9.31-6.11,15.12m-2-6.11v21.24"/><path class="a" d="M249.15,125.31l-6.4-.29"/><path class="b" d="M228.48,139.25l.6-17.42m0,0c.29-4.07,3.33-2.73,9.59-2.91,2.19-.06,6.73.06,10.48.19"/><path class="a" d="M240.4,173.67l-.46-51.41m2.48,25.59-.22-20.6m8.25,21.93-.1-19m1.58,5.21,19.25,1.36"/><path class="b" d="M292.48,138.12l23.78,1.14M292.51,176l0-37.9m14.2,31.74-10.11-.52m5.42.2v6.1m4.69-5.78-.1,5.6"/><path class="a" d="M296.57,169.33l.06,6.52"/><path class="b" d="M316.59,175.17l-.33-35.92"/><path class="a" d="M311,175.38V138.89"/><path class="b" d="M292.18,207.23,292,196.87"/><path class="a" d="M295.75,204.46l-.11-7.79"/><path class="b" d="M302.17,202.5l-.08-6.2M222,232.08l7.59-.55m19.58-127.44,5.73.1m7.57.14,14.62.28"/><path class="a" d="M251.83,109.42l0-5.29"/><path class="b" d="M325.72,176.5l52.7-1.75m-52.48-1.31,53.34-2m-.86,3.26v-3.23m.86,0,.24-8.72M380,146l.37-13.54m.24-8.89L381.34,96"/><path class="a" d="M381.34,96,331.6,94.75m-8.6-.21-3.56-.09m5.86-31.68-8.09,112.28"/><path class="b" d="M294.49,138.31l.4-48.44m0,0,28.39.87m8.6.26,48.69,1.48m0,0-.09,3.5"/><path class="a" d="M312.71,139.11l.6-49.64m5.53,54.62.6-49.64m5.18,97.33,58.65-2.42"/><path class="b" d="M383.27,189.35l-26.07-2.71-32.27.81"/><path class="c" d="M254,287.05v5.64"/><path class="a" d="M254,287.05,84.91,310.28"/><path class="b" d="M254,292.69,84.91,315.91"/><path class="c" d="M222.55,302l-8.3-3.8m8.3,3.8-.15,10.9m0,0L85,333.62"/><path class="a" d="M222.55,302,85.13,322.72"/><path class="b" d="M216.58,299,79.15,319.73"/><path class="c" d="M221.74,345.26l-33.48-17.39.66-9.85"/><path class="a" d="M221.74,345.26,23.17,381.69"/><path class="c" d="M209.6,358.39,11.68,395.8m191-52.59L.85,381.36"/><path class="a" d="M202.63,343.21l-23.89-12.72m0,0v7.55"/><path class="b" d="M177.1,323.92,34.72,346m142.38-22.1V319.7"/><path class="a" d="M178.75,330.49,45.49,351.16"/><path class="c" d="M178.75,338,78,355.1m143.76-9.84-2.3,98.8"/><path class="a" d="M211.57,358.06l-2.12,91.24"/><path class="c" d="M206.32,359.7l-1.46,62.59m-.21,9.2-.35,15.16"/><path class="a" d="M205,422.39l-10.85-7.71m-5.25-3.74L177.77,403"/><path class="c" d="M193.84,423.7l10.81,7.79"/><path class="a" d="M193.84,423.7l.33-9.52-92.23,21.34"/><path class="c" d="M193.84,423.7,101.61,445m85.67-34.13L95.05,432.24"/><path class="a" d="M178.75,338l-.13,9.72m-.22,16.53-.65,48.82m-.19,14.36-.12,9.69"/><path class="c" d="M186,399.41l.65-36.76M186,399.41l19.37,13.46m-32.5,1.31.33-49.89m0-15.51V338.72"/><path class="a" d="M330.2,276.42l64.69-9m57.08-8,54.81-7.65"/><path class="c" d="M254,287.05l-7.83-4"/><path class="a" d="M330.2,276.42v5.8"/><path class="c" d="M330.2,282.22l64.09-8.81m56.92-7.83,43.52-6"/><path class="a" d="M330.2,276.42,301.83,267"/><path class="c" d="M330.2,282.22l-19.12-6.33"/><path class="b" d="M487.91,244.31l-9.25,1M462,247.16l-9.37,1M55.12,288.68,77.88,286m5.65-.67,26.64-3.15m6.73-.8,29.26-3.45m6.42-.76,23.13-2.73m6.78-.8,23.92-2.82m7.82-.92,20.36-2.41m8.1-1,47.44-5.59m9.71-1.15,26.61-3.15m8.08-.95L349.17,254m8.31-1L372,251.27m8.4-1,14.48-1.71m56.49-6.66,16.86-2m8.8-1,20.64-2.44M44,268.42l204-18.71m34-3.13,115-10.55M452.19,231l43.84-4c3.63-.28,4.47,8.39,1.67,9.5"/><path class="a" d="M55.56,284.28l343.07-38m52.4-6,18.6-2.14m6.23-.72L499,234.71M50.35,273.86l347.46-35.37m51.63-5.56,48.25-5.19m-138.2,41.52-7.47,1.2m7.69-1.21,2.75,1.08L355,271.45m0,0-16.67-5.87M352,270.45l-.18-12.18m0,0c.06-2.71-1.54-2.9-2.59-1.73m0,0-2.73,3.9m0-.06,0,7.53m-1.37-.09-.33-11.55a2.51,2.51,0,0,0-.49-1.72m-1.79.21-1.61,3.62m0,0,0,7.88M352,264c1.48-.57,2.39-2.91,2.23-5.52-.19-3-1.76-5.34-3.49-5.23s-2.86,2.4-2.8,5.23m2.54,1.87c.5,0,.86-.76.81-1.63s-.51-1.55-1-1.52-.86.77-.8,1.64.5,1.55,1,1.52m2.05,4.91c2.09-.14,3.6-3.19,3.36-6.82s-2.13-6.46-4.22-6.32a3.27,3.27,0,0,0-2.56,2.1m2.92,11a2.16,2.16,0,0,0,.5,0m4-.46c1.87-.57,3.06-3.47,2.86-6.73-.23-3.48-2-6.23-4-6.32m-2.86,13.53c1.5.14,3.27.05,4.17-.59m-6.08-12.28a8,8,0,0,1,5.17-.54m4,17.36.41-11.84m0,0c0-1.85-.68-2.52-1.48-2.4m-13.79,6.38c1.31-.5,2.12-2.58,2-4.89a7.93,7.93,0,0,0-.46-2.19m-5,.59a8.07,8.07,0,0,0-.13,1.61m2.25,1.66c.45,0,.77-.68.72-1.45s-.46-1.37-.9-1.34-.76.67-.71,1.44.46,1.37.91,1.34m1.81,4.35a2.09,2.09,0,0,0,1.19-.48m1.72-6.21a9.49,9.49,0,0,0-.37-1.68m-3,8.36a2.23,2.23,0,0,0,.44,0,11.91,11.91,0,0,0,1.2.05m13,6.7-7.38-2.73m-13.73-.95,2.47-.24m41.54,1.16L375,267.71m7.69-1.2,2.75,1.08L378,268.71m0,0-16.66-5.87M375,267.71l-.19-12.18c.06-2.71-1.54-2.89-2.59-1.72l-2.72,3.89m0,0,0,7.53m-1.38-.1-.34-11.54m0,0a2.59,2.59,0,0,0-.44-1.67m-1.83.15-1.61,3.62,0,7.88m11.08-2.24c1.48-.57,2.39-2.91,2.23-5.52-.19-3-1.76-5.34-3.49-5.23s-2.86,2.4-2.8,5.23m2.52,1.88c.5,0,.86-.76.81-1.63s-.51-1.55-1-1.52-.86.77-.8,1.64.51,1.54,1,1.51m2.05,4.9c2.09-.14,3.6-3.19,3.36-6.82s-2.13-6.46-4.22-6.33a3.31,3.31,0,0,0-2.56,2.1m2.92,11a2.2,2.2,0,0,0,.5,0m4-.47c1.87-.57,3.07-3.47,2.86-6.73-.23-3.48-2-6.23-4-6.32m-2.87,13.53c1.5.13,3.27,0,4.18-.59m-6.08-12.28a8.06,8.06,0,0,1,5.16-.55m4,17.37.42-11.83c0-1.85-.69-2.53-1.49-2.4m-13.79,6.37c1.31-.5,2.12-2.58,2-4.89a7.88,7.88,0,0,0-.43-2.13m-5,.59a7.43,7.43,0,0,0-.12,1.54m2.25,1.66c.45,0,.77-.68.72-1.45s-.46-1.37-.9-1.34-.77.67-.72,1.45.47,1.37.91,1.34m1.82,4.35a2.19,2.19,0,0,0,1.2-.48m1.72-6.21a9,9,0,0,0-.35-1.63m-3,8.29a1.66,1.66,0,0,0,.44,0m0,0a9.55,9.55,0,0,0,1.2.05m13,6.69-7.39-2.72m-13.73-.94,2.48-.25M395.4,264l-11.14-3.93m13.28-8.73c-.44-1.3-1.6-1.22-2.42-.3l-2.72,3.9m0,0,0,7.52m-1.37-.1-.34-11.54a2.65,2.65,0,0,0-.4-1.61m-1.88.09-1.61,3.63,0,7.88m11.45-12.35a2.16,2.16,0,0,0-1.63-.64c-1.65.1-2.86,2.4-2.8,5.22m2.53,1.87c.5,0,.86-.76.8-1.63s-.51-1.55-1-1.51-.86.76-.8,1.63.51,1.55,1,1.52m-1.3-6.27-.07.14m3.33-2.41.45-.08m-8,9.63c1.31-.51,2.13-2.58,2-4.89a8,8,0,0,0-.41-2.08m-5.06.59a6.83,6.83,0,0,0-.1,1.48m2.24,1.65c.44,0,.76-.68.71-1.45s-.45-1.37-.9-1.34-.76.68-.71,1.45.46,1.37.9,1.34m1.82,4.35a2.15,2.15,0,0,0,1.2-.48m1.72-6.21a10.49,10.49,0,0,0-.34-1.57m-3,8.23a1.71,1.71,0,0,0,.44,0c.39,0,.8.05,1.2.05m-8.15,3,2.48-.25m11.86-13.13c-1.41-.58-2.76.22-3.61,1.92m83.26,3.52-6.52,1m6.72-1,2.4.94-6.48,1m0,0-14.55-5.12m11.92,4.24-.16-10.64m0,0c.05-2.36-1.35-2.53-2.26-1.5l-2.38,3.4m0,0,0,6.57m-1.21-.08-.3-10.08m-2.48-.21-.91,2.06m0,0,0,6.88m9.66-2c1.29-.5,2.09-2.55,2-4.82-.17-2.62-1.54-4.66-3.05-4.57s-2.5,2.1-2.44,4.57m2.21,1.64c.43,0,.75-.67.7-1.43s-.45-1.35-.88-1.32-.76.67-.71,1.43.44,1.35.88,1.32m1.79,4.28c1.83-.12,3.15-2.79,2.94-6s-1.86-5.64-3.69-5.52a2.88,2.88,0,0,0-2.23,1.84m2.54,9.62a2.23,2.23,0,0,0,.44,0m3.49-.41c1.63-.5,2.67-3,2.49-5.88-.2-3-1.73-5.43-3.47-5.52M472,248.66a6.22,6.22,0,0,0,3.64-.51m-5.31-10.73a7.08,7.08,0,0,1,4.51-.48m3.5,15.17.36-10.33c0-1.61-.6-2.2-1.3-2.09m-12,5.57c1.15-.44,1.86-2.25,1.73-4.27a7.64,7.64,0,0,0-.11-.9m-4.76.56V241m2,1.44c.39,0,.67-.59.62-1.27a1.71,1.71,0,0,0-.23-.79m-1.07.14a1.92,1.92,0,0,0-.1.76c.05.67.4,1.2.78,1.17m1.58,3.8a1.77,1.77,0,0,0,1.05-.42m1.5-5.42c0-.16-.05-.31-.07-.45m-2.86,6.27a1.31,1.31,0,0,0,.39,0m0,0a9,9,0,0,0,1.05,0m11.33,5.85-6.45-2.38m-12-.83,2.16-.22m47.32-.14-6.51,1m6.72-1.06,2.39.95-6.48,1-14.55-5.13m11.92,4.25L502.55,239c.05-2.37-1.34-2.53-2.26-1.51l-2.38,3.4m0,0,0,6.57m-1.21-.08-.29-10.07a3.7,3.7,0,0,0,0-.6m-2.4.29-1,2.15,0,6.88m9.68-2c1.29-.49,2.09-2.54,1.95-4.82-.17-2.62-1.54-4.66-3.05-4.56s-2.5,2.1-2.45,4.56m2.21,1.65c.44,0,.76-.66.71-1.42s-.45-1.35-.89-1.32-.75.66-.7,1.42.44,1.34.88,1.32m1.79,4.28c1.83-.12,3.14-2.78,2.94-6s-1.86-5.64-3.69-5.52a2.85,2.85,0,0,0-2.23,1.83m2.54,9.62a2.2,2.2,0,0,0,.44,0m3.48-.41c1.63-.5,2.67-3,2.49-5.87-.2-3-1.73-5.44-3.48-5.52m-2.5,11.8a6.17,6.17,0,0,0,3.65-.52m-5.31-10.73a7,7,0,0,1,4.51-.47m3.49,15.16.36-10.34m0,0c0-1.61-.6-2.2-1.3-2.09m-12,5.57c1.15-.44,1.86-2.25,1.73-4.27a6.06,6.06,0,0,0-.16-1.1m-4.71.68v.43m2,1.45c.39,0,.67-.6.62-1.27a1.81,1.81,0,0,0-.26-.85m-1,.06a1.82,1.82,0,0,0-.15.88c0,.67.4,1.2.78,1.17m1.59,3.81a1.84,1.84,0,0,0,1.05-.42m1.5-5.42a7.86,7.86,0,0,0-.44-1.78m-2.5,7.61a2.68,2.68,0,0,0,.39,0M501.3,234a2.91,2.91,0,0,0-2.24-1.78m-2.22,10.47a9.13,9.13,0,0,0,1.05,0m11.32,5.85-6.45-2.38m-12-.83,2.16-.22M336.59,272.07l-7.47,1.2m7.69-1.21,2.75,1.08-7.43,1.12m0,0-16.66-5.87m13.64,4.87-.19-12.18m0,0c.07-2.71-1.54-2.9-2.58-1.73l-2.73,3.9m0-.05,0,7.53m-1.38-.1-.33-11.54a2.5,2.5,0,0,0-.54-1.79m-1.72.2,0,.07L318,261.2l0,7.88M329,266.84c1.48-.56,2.4-2.91,2.23-5.52-.19-3-1.76-5.34-3.49-5.22s-2.85,2.4-2.8,5.23m2.53,1.88c.5,0,.87-.77.81-1.64s-.51-1.55-1-1.51-.87.76-.81,1.63.51,1.55,1,1.52m2.05,4.9c2.1-.14,3.6-3.19,3.36-6.82s-2.12-6.46-4.22-6.32a3.27,3.27,0,0,0-2.56,2.1m2.92,11a2.16,2.16,0,0,0,.5,0m4-.47c1.87-.57,3.07-3.47,2.86-6.73-.23-3.48-2-6.22-4-6.32m-2.87,13.53c1.5.14,3.27.05,4.17-.59m-6.07-12.28a8.08,8.08,0,0,1,5.17-.54m4,17.36.42-11.84m0,0c0-1.85-.69-2.52-1.49-2.39M322,264.22c1.31-.51,2.12-2.59,2-4.89a7.92,7.92,0,0,0-.48-2.26m-4.95.58a8,8,0,0,0-.14,1.67M320.6,261c.44,0,.76-.68.71-1.45s-.45-1.37-.89-1.34-.77.68-.72,1.45.46,1.37.9,1.34m1.82,4.35a2.22,2.22,0,0,0,1.2-.48m1.72-6.21a8.25,8.25,0,0,0-.4-1.74m-3,8.4a2.36,2.36,0,0,0,.45,0m0,0c.39,0,.79.05,1.2.05m13,6.69-7.39-2.73m-13.73-.94,2.48-.25M88.53,304.67l-9,.94"/><path class="b" d="M88.54,304.61l2.18,1.23-8.62.94L66,299.34l1.33-.16m12.17,6.37-.21-13.26c.07-3-1.67-3.16-2.81-1.88"/><path class="a" d="M76.49,290.4l-3,4.24m0-.05,0,8.2"/><path class="b" d="M71.79,301.79l-.18-11.67c.06-2.6-2-2.9-2.48-1.65"/><path class="a" d="M69.13,288.46l-1.75,4,0,7.44m12.06-1.29c1.61-.62,2.61-3.17,2.43-6-.21-3.27-1.91-5.82-3.8-5.69s-3.11,2.61-3,5.69m2.76,2c.55,0,.94-.83.88-1.78s-.56-1.68-1.11-1.65-.93.84-.87,1.78.55,1.68,1.1,1.65M80,299.93c2.28-.15,3.92-3.47,3.66-7.42s-2.31-7-4.6-6.89a3.56,3.56,0,0,0-2.78,2.29m3.17,12a2.62,2.62,0,0,0,.55,0m4.35-.51c2-.62,3.33-3.77,3.11-7.32-.25-3.79-2.16-6.79-4.34-6.89M80,299.93c1.63.15,3.56.05,4.55-.64M77.9,285.91a8.72,8.72,0,0,1,5.63-.59"/><path class="b" d="M88.54,304.61l-.21-13.26c0-2-.74-2.75-1.62-2.61"/><path class="a" d="M71.7,295.68c1.43-.54,2.31-2.81,2.15-5.32a7.47,7.47,0,0,0-1.19-3.75m-4.28.5a7.49,7.49,0,0,0-.6,3.24m2.44,1.8c.49,0,.84-.73.78-1.57s-.49-1.5-1-1.46-.84.73-.78,1.57.49,1.49,1,1.46m2,4.74a2.35,2.35,0,0,0,1.31-.52m1.87-6.77a9.26,9.26,0,0,0-1-3.21m-2.67,10.47a1.58,1.58,0,0,0,.48,0m0,0c.42,0,.87.06,1.31.06m15,7.66-9.12-4.07m41.84-.05-9,.94"/><path class="b" d="M121.26,300.49l2.18,1.23-8.62.94-16.09-7.44,1.34-.16m12.17,6.37L112,288.17m0,0c.07-3-1.67-3.16-2.81-1.88"/><path class="a" d="M109.21,286.28l-3,4.24m0,0,0,8.2"/><path class="b" d="M104.51,297.67,104.33,286c.06-2.6-2-2.9-2.48-1.65"/><path class="a" d="M101.85,284.34l-1.76,4,0,7.44m12.06-1.29c1.61-.62,2.61-3.17,2.43-6-.21-3.27-1.92-5.82-3.8-5.69s-3.12,2.61-3,5.69m2.76,2c.54,0,.94-.83.88-1.78s-.56-1.68-1.11-1.65-.94.84-.87,1.78.55,1.68,1.1,1.65m2.23,5.34c2.28-.15,3.92-3.47,3.66-7.43s-2.32-7-4.6-6.88a3.57,3.57,0,0,0-2.78,2.28m3.18,12a2,2,0,0,0,.54,0m4.35-.52c2-.62,3.34-3.77,3.11-7.32-.25-3.8-2.15-6.79-4.33-6.89m-3.13,14.72c1.63.15,3.56.05,4.55-.64m-6.62-13.37a8.77,8.77,0,0,1,5.62-.6"/><path class="b" d="M121.26,300.49l-.2-13.26m0,0c0-2-.75-2.75-1.62-2.61"/><path class="a" d="M104.42,291.56c1.43-.55,2.31-2.81,2.16-5.32a7.69,7.69,0,0,0-1-3.51m-4.55.53a7.48,7.48,0,0,0-.49,3m2.44,1.8c.48,0,.83-.74.78-1.58s-.5-1.49-1-1.46-.83.74-.78,1.58.5,1.49,1,1.46m2,4.74a2.35,2.35,0,0,0,1.31-.52m1.88-6.77a9.36,9.36,0,0,0-.87-3m-2.79,10.23a1.58,1.58,0,0,0,.48,0m0,0c.42,0,.87.06,1.31.06m15,7.66-9.12-4.07m45-.06-9,.94"/><path class="b" d="M157.1,296.36l2.18,1.23-8.62.94m0,0-16.09-7.44m0,0,1.34-.16m12.16,6.37L147.87,284m0,0c.07-2.95-1.67-3.15-2.81-1.87"/><path class="a" d="M145.05,282.15l-3,4.24m0-.05,0,8.2"/><path class="b" d="M140.36,293.54l-.18-11.67c.06-2.6-2-2.9-2.48-1.65"/><path class="a" d="M137.7,280.21l-1.76,4,0,7.44M148,290.31c1.61-.62,2.61-3.17,2.43-6-.21-3.27-1.92-5.82-3.8-5.69s-3.11,2.61-3,5.69m2.76,2c.54,0,.94-.83.88-1.78s-.56-1.68-1.11-1.65-.94.83-.87,1.78.55,1.68,1.1,1.65m2.23,5.34c2.28-.15,3.92-3.47,3.66-7.43s-2.32-7-4.6-6.88a3.59,3.59,0,0,0-2.79,2.28m3.17,12a2.12,2.12,0,0,0,.55,0m4.34-.52c2-.62,3.34-3.77,3.11-7.32-.25-3.79-2.15-6.79-4.33-6.89m-3.12,14.72c1.63.15,3.56.05,4.55-.64m-6.62-13.38a8.77,8.77,0,0,1,5.62-.6"/><path class="b" d="M157.1,296.36l-.2-13.26m0,0c0-2-.75-2.75-1.62-2.61"/><path class="a" d="M140.26,287.43c1.43-.55,2.31-2.81,2.16-5.32a7.73,7.73,0,0,0-1.1-3.61m-4.44.53a7.51,7.51,0,0,0-.53,3.09m2.44,1.8c.48,0,.83-.74.77-1.58s-.49-1.49-1-1.46-.84.73-.78,1.57.5,1.49,1,1.46m2,4.74a2.3,2.3,0,0,0,1.3-.52m1.87-6.77a9.26,9.26,0,0,0-.91-3.06m-2.74,10.32a1.58,1.58,0,0,0,.48,0m0,0c.42,0,.87.06,1.31.06m15,7.66L148,292.3m38.85.45-9,.93"/><path class="b" d="M186.83,292.74,189,294l-8.62.94m0,0-16.09-7.44,1.34-.16m12.16,6.37-.21-13.27m0,0c.07-3-1.67-3.15-2.81-1.87"/><path class="a" d="M174.78,278.53l-3,4.24m0,0,0,8.2"/><path class="b" d="M170.08,289.91l-.18-11.67c.06-2.6-2-2.9-2.48-1.65"/><path class="a" d="M167.42,276.59l-1.76,4m0,0,0,7.44m12.06-1.3c1.61-.62,2.61-3.17,2.43-6-.21-3.27-1.92-5.82-3.8-5.69s-3.12,2.61-3.05,5.69m2.76,2c.54,0,.94-.83.88-1.78s-.56-1.68-1.11-1.65-.94.83-.87,1.78.55,1.69,1.1,1.65m2.23,5.35c2.28-.15,3.92-3.47,3.66-7.43s-2.32-7-4.6-6.88a3.57,3.57,0,0,0-2.78,2.28m3.17,12a2,2,0,0,0,.54,0m4.35-.52c2-.62,3.34-3.77,3.11-7.32-.25-3.79-2.15-6.79-4.33-6.89m-3.13,14.73c1.63.15,3.56.05,4.54-.64M176.18,274a8.72,8.72,0,0,1,5.63-.59"/><path class="b" d="M186.83,292.74l-.2-13.26m0,0c0-2-.75-2.75-1.62-2.61"/><path class="a" d="M170,283.81c1.43-.54,2.31-2.81,2.16-5.32a7.81,7.81,0,0,0-1-3.5m-4.57.54a7.49,7.49,0,0,0-.48,3m2.45,1.81c.48,0,.83-.74.77-1.58s-.49-1.49-1-1.46-.84.74-.78,1.58.49,1.49,1,1.46m2,4.73a2.3,2.3,0,0,0,1.3-.52m1.87-6.76a9,9,0,0,0-.86-2.95M170,285a2.79,2.79,0,0,0,.49,0,11.13,11.13,0,0,0,1.3.05m15,7.67-9.11-4.07m40.29,0-9,.94"/><path class="b" d="M218,288.63l2.18,1.23-8.62.94m0,0-16.09-7.44m0,0,1.34-.16M209,289.56l-.21-13.26c.07-3-1.67-3.16-2.81-1.88"/><path class="a" d="M206,274.42l-3,4.24m0-.05,0,8.2"/><path class="b" d="M201.25,285.8l-.18-11.67m0,0c.06-2.6-2-2.9-2.48-1.65"/><path class="a" d="M198.6,272.48l-1.76,3.95,0,7.44m12.06-1.29c1.61-.62,2.61-3.17,2.43-6-.21-3.27-1.92-5.82-3.8-5.69s-3.12,2.61-3.05,5.69m2.76,2c.54,0,.94-.83.88-1.78s-.56-1.68-1.11-1.65-.94.84-.87,1.78.56,1.69,1.1,1.65m2.23,5.35c2.28-.15,3.92-3.47,3.66-7.42s-2.32-7-4.6-6.89a3.59,3.59,0,0,0-2.79,2.29m3.19,12a2.08,2.08,0,0,0,.55,0m4.34-.51c2-.62,3.34-3.77,3.11-7.32-.25-3.79-2.15-6.78-4.33-6.89M209.44,284c1.63.15,3.56.05,4.54-.64m-6.62-13.38a8.72,8.72,0,0,1,5.63-.59"/><path class="b" d="M218,288.63l-.2-13.26c0-2-.75-2.75-1.62-2.61"/><path class="a" d="M201.16,279.7c1.43-.54,2.31-2.81,2.16-5.32a8.06,8.06,0,0,0-.81-3.09m-4.95.57a8.13,8.13,0,0,0-.32,2.51m2.44,1.81c.48,0,.83-.74.78-1.58s-.5-1.49-1-1.46-.83.73-.78,1.57.49,1.49,1,1.46m2,4.73a2.35,2.35,0,0,0,1.31-.52m1.86-6.76a9.9,9.9,0,0,0-.68-2.54m-3,9.8a2.05,2.05,0,0,0,.49,0m0,0c.42,0,.86.06,1.3.06m15,7.67-9.12-4.08m37.44.58-9,.94"/><path class="b" d="M246.32,285.14l2.18,1.23-8.62.94m0,0-16.09-7.44m0,0,1.34-.16m12.17,6.37-.21-13.27m0,0c.07-2.95-1.67-3.15-2.81-1.87"/><path class="a" d="M234.27,270.93l-3,4.24m0-.05,0,8.2"/><path class="b" d="M229.57,282.32l-.18-11.67c.06-2.6-2-2.9-2.48-1.65"/><path class="a" d="M226.91,269l-1.76,3.95,0,7.44m12.06-1.29c1.61-.62,2.61-3.17,2.43-6-.21-3.27-1.92-5.82-3.8-5.69s-3.11,2.61-3.05,5.69m2.76,2c.54,0,.94-.83.88-1.78s-.56-1.68-1.11-1.65-.94.83-.87,1.78.55,1.68,1.1,1.65m2.23,5.34c2.28-.15,3.92-3.47,3.66-7.43s-2.32-7-4.6-6.88a3.57,3.57,0,0,0-2.78,2.28m3.18,12a2.55,2.55,0,0,0,.54,0m4.35-.51c2-.62,3.34-3.78,3.11-7.32-.25-3.8-2.15-6.79-4.33-6.89m-3.13,14.72c1.63.15,3.56.05,4.54-.64m-6.61-13.38a8.77,8.77,0,0,1,5.62-.6"/><path class="b" d="M246.32,285.14l-.2-13.26m0,0c0-2-.75-2.75-1.63-2.61"/><path class="a" d="M229.48,276.21c1.43-.55,2.31-2.81,2.16-5.32a8.24,8.24,0,0,0-.74-2.95m-5.06.6a8.09,8.09,0,0,0-.28,2.35m2.44,1.8c.49,0,.83-.74.78-1.58s-.49-1.49-1-1.46-.83.74-.78,1.58.5,1.49,1,1.46m2,4.73a2.35,2.35,0,0,0,1.31-.52m1.88-6.76a9.77,9.77,0,0,0-.62-2.4m-3,9.66a2.75,2.75,0,0,0,.49,0,11.13,11.13,0,0,0,1.3.05m15,7.67-9.12-4.07"/><path class="b" d="M42.72,301.36,66.57,298m21-2.94,12.34-1.73m21-2.94,15-2.1m21-2.94,8.71-1.21m21-2.93,10.17-1.43m21-2.94,7.33-1m76.45-10.7L318,262.86m19.25-2.69,3.66-.51m19.25-2.7,3.66-.51M383,253.77l3.71-.52m-151.23,144,1.88-101m-1.88,101-6.9,2.19"/><path class="a" d="M228.57,399.48l2.2-103.25"/><path class="b" d="M224.54,397.53l2.15-101m1.88,102.93-4-2m-3.86-23.92,4.39-1.18m-4.31,15.22,4-1.08"/><path class="a" d="M262.72,406.14c0,1.18-.79,2.09-3.92,3.13a123.21,123.21,0,0,1-13.3,3.79c-3.66.65-7.19,1.11-10.44-.4-3.65-1.69-8.09-3.39-8.09-4.56"/><path class="b" d="M227,408.1l-.13-9.13m35.88,7.17.91-30.92m-.13,16.18,1.57-.39m0,0,58.44,33.53"/><path class="c" d="M323.51,424.54l-57,15.65"/><path class="a" d="M240.08,411.68l1.3-54.86m1.49,54.86,1.3-54.86"/><path class="b" d="M255,373c.74,2.42,12.46,2.79,13,.75l1.3-35.89M255,373l.56-35.7"/><path class="a" d="M263.88,338,257.37,336"/><path class="b" d="M257.37,336V331.9l-20.83-7.44"/><path class="a" d="M255.51,337.29c.74,2.42,12.46,2.79,13,.75"/><path class="b" d="M255.51,337.29s0-.93,1.86-1.3"/><path class="a" d="M263.88,338l.13-13,23-3.28"/><path class="b" d="M287,321.73l-.37,12.58m0,0L263.87,338M287,321.72l-4.92-1.09m0,0v-2.19"/><path class="a" d="M282.06,318.45l-20.23,2.92m20.23-.74-20.23,2.92"/><path class="b" d="M288,275.58l-24,3.68"/><path class="a" d="M264,279.26c6.92,16.22,3.1,31.17-1.46,37.91s-1.64,5.65-.73,6.38"/><path class="b" d="M288,275.58c6.92,16.22,3,30.84-1.6,37.58-.85,1.27-4,4.51-4.37,5.29m-18-39.18-17.9-7.39"/><path class="a" d="M268.47,278.58c-1.82-6.92-4.66-11.78-7.84-14.15"/><path class="c" d="M250.08,265.67a21.15,21.15,0,0,0-4,6.21m34.25,4.89c-2-6.95-5-11.64-8.32-13.68M265.65,279c-2.31-7-5.94-10.83-9.64-10.82"/><path class="a" d="M256,268.19c-2.58,0-4.93,1.9-6.79,5"/><path class="d" d="M256,269c-2.49,0-4.91,1.43-6.7,4.41l-.2-.57c1.92-3.18,4.22-5.51,6.88-5.54l0,1.7"/><path class="b" d="M288,275.58l-9.44-3.9"/><path class="a" d="M284,276.2l-4.32-1.78"/><path class="c" d="M281.19,345.09c0,5.25,7.36,9.5,16.44,9.5s16.45-4.25,16.45-9.5"/><path class="a" d="M286.43,313.16a34.35,34.35,0,0,0,11.2,1.7c9.08,0,16.45-2.83,16.45-6.33"/><path class="c" d="M314.08,308.53V345.1m-32.89-9.9v9.89"/><path class="a" d="M289,312.11a26.36,26.36,0,0,0,8.67,1.31c7,0,12.73-2.19,12.73-4.89"/><path class="c" d="M314.08,308.53c.18-2.94-5.72-6.1-5.44-9.94m3.29-21.54c.82,14.13-.42,20.16-3.3,21.53"/><path class="a" d="M299.45,278.7l5.89-.41m-5.9.41-4.8-3.56m.69,2.19c.55,6.85,2.2,19.2-1.23,24.55m5.34-23.18-.27,20.16s-.55,6-3,7.4m9.19-28s-.27,13.58,1.1,16.46m-1.1-16.46-4.53-2.47"/><path class="c" d="M311.93,277.05s-1.37-2.88-6.72-4.66S283,270.2,283,273.49"/><path class="a" d="M305.35,278.29s7.81,0,6.31-1.92m-16.05,3.43s-4.94.41-6.45-1.23m4.78-7.68c1.84-.28,2.92-3.15,2.42-6.41s-2.4-5.66-4.23-5.38"/><path class="b" d="M292.13,259.09c-1.84.29-2.92,3.15-2.42,6.41s2.4,5.67,4.23,5.38"/><path class="d" d="M294.65,260.73a2.48,2.48,0,0,0-2.43-1.07l-.17-1.12c.9-.14,1.92.54,2.8,1.66l-.2.53"/><path class="d" d="M293.86,270.33a2.54,2.54,0,0,0,2-1.75l.36.45c-.48,1.27-1.18,2.27-2.18,2.42l-.16-1.12"/><path class="b" d="M299.07,270.24c1.83-.28,2.92-3.15,2.41-6.4s-2.39-5.67-4.23-5.39m1.81,11.79-5.12.64m3.3-12.43-5.12.65"/><path class="a" d="M293.46,267.72c.85-.13,1.35-1.46,1.12-3s-1.11-2.62-2-2.49-1.36,1.46-1.12,3,1.11,2.63,2,2.5m-6.43.09c1.83-.28,2.91-3.15,2.41-6.41,0-.13,0-.26-.06-.37m-4.07-5h-.11"/><path class="b" d="M282.72,261.82c0,.22,0,.43.07.61.5,3.26,2.4,5.67,4.23,5.39"/><path class="d" d="M286.94,267.25a2.54,2.54,0,0,0,2-1.75l.36.45c-.48,1.27-1.18,2.27-2.18,2.42l-.16-1.12"/><path class="b" d="M290.2,267.41l-3.17.4"/><path class="a" d="M286.54,264.65c.85-.13,1.35-1.46,1.12-3,0-.15-.06-.3-.09-.43m-3,.36c0,.19,0,.38.05.55.24,1.51,1.11,2.62,2,2.49"/><path class="b" d="M383.27,189.35l-.14,47.6m-90.23,8.64,0-3.1m0-5.65,0-4.51"/><path class="a" d="M348.61,207.67l-.14,13.79m11.85-13.94-.06,13.42m0,0-11.78.52m.13-13.79,11.71-.15m-8.62,8.12,6.91-.09m0,0,0,5.46m-37.24,22V230m-4.81,29.82v-1.93m0-14.42v-5.78"/><path class="b" d="M378.68,288.65l-29.07-8.91m29.07,8.91,14.82-2.22m52.07-7.79,104-15.57"/><path class="a" d="M378.11,279.06l16-2.16m56-7.56L534.1,258"/><path class="b" d="M378.68,288.65v-9.47"/><path class="a" d="M378.68,279.18,368.41,277m9.91,41.25L377,423.14"/><path class="b" d="M372,323.64,371,383.28m-.15,8.74-.48,27.29M384,324.53l-.63,95.9"/><path class="a" d="M383.38,420.43l-6.33,2.71-6.69-3.83"/><path class="b" d="M378.32,318.27l-45.25-17.61-2.25,96"/><path class="a" d="M338.5,310.49l-1.36,57.82m-.18,7.26-.56,24.2"/><path class="b" d="M344.92,313l-1.26,53.79m-.27,11.89-.46,19.42m.45-19.42L337,375.57"/><path class="a" d="M336.4,399.76l6.53-1.66m-6.53,1.66-5.58-3.07M371,383.28l-33.85-15,6.52-1.52"/><path class="b" d="M371.07,378.91l-27.4-12.11m12.1,5.36,15.47-3.46m12.48-2.79,5.82-1.3m49.38-11,31.54-7.05"/><path class="a" d="M362.43,375.09l8.73-2m12.54-2.86,5.65-1.29m50-11.39,32.56-7.42"/><path class="b" d="M383.65,378l5.19-1.2m50-11.6,23.8-5.53"/><path class="a" d="M378.32,318.27l10.86-1.88m48.91-8.48,32.16-5.58"/><path class="b" d="M384,324.53l4.22-.73m49.43-8.58,38.27-6.64M372,323.64l-33.55-13.15M379,313.82l-31.34-11.71m-14.57-1.45,59.69-8.58M441.89,285l54.41-7.83"/><path class="a" d="M347.65,302.11l44.59-6.41"/><path class="b" d="M357.52,305.8l34-4.88M379,313.82,389.83,312m48.67-8.11,50.79-8.47"/><path class="b" d="M370.84,392l-27.45-13.34"/><path class="d" d="M178.2,146.08l2.34-14.14-5,.06Z"/><path class="a" d="M177.4,67l.66,66.36M344,45.25c.1-1.3.15-2.58.15-3.69,0-20.93-13.67-37.92-30.58-38.06"/><path class="d" d="M319.12,7.63,306.15,2,320.27.57Z"/><path class="a" d="M40.05,260C39,273.9,66.22,271.72,51.77,295.71m166.43-89A15.09,15.09,0,0,0,203.89,212"/></svg>