<svg xmlns="http://www.w3.org/2000/svg" xmlns:xlink="http://www.w3.org/1999/xlink" viewBox="0 0 559.57 425"><defs><style>.a,.i,.k,.s,.v,.y{fill:none;}.b{fill:#29261c;}.c{fill:#383323;}.d{fill:#1a1915;}.e{fill:#47402a;}.f{fill:#b28c10;}.g{fill:#73673f;}.h{fill:#997d23;}.i{stroke:#fff;stroke-linecap:round;stroke-width:4px;}.i,.k,.s,.v,.y{stroke-miterlimit:10;}.j{fill:#807658;}.k{stroke:#1a1915;}.l{clip-path:url(#a);}.m{fill:#645a38;}.n{fill:#554d31;}.o{fill:#b58d1d;}.p{fill:#fff;}.q{fill:#dedede;}.r{clip-path:url(#b);}.s,.v,.y{stroke:#807658;}.t{fill:#8c762c;}.u{clip-path:url(#c);}.v{stroke-width:0.99px;}.w{fill:#a6841a;}.x{clip-path:url(#d);}.y{stroke-width:0.84px;}.z{fill:#e2cd8d;}.aa{clip-path:url(#e);}.ab{clip-path:url(#f);}.ac{fill:#a37d11;}.ad{clip-path:url(#g);}.ae{clip-path:url(#h);}.af{fill:#827854;}.ag{fill:#8c7c4d;}</style><clipPath id="a"><rect class="a" x="17" y="174" width="540" height="10" rx="5"/></clipPath><clipPath id="b"><path class="a" d="M462,160h59a0,0,0,0,1,0,0v12a0,0,0,0,1,0,0H462a6,6,0,0,1-6-6v0a6,6,0,0,1,6-6Z"/></clipPath><clipPath id="c"><path class="a" d="M469.93,143h57.18a0,0,0,0,1,0,0v12a0,0,0,0,1,0,0H469.93a6,6,0,0,1-6-6v0A6,6,0,0,1,469.93,143Z" transform="translate(991.06 298) rotate(-180)"/></clipPath><clipPath id="d"><path class="a" d="M480.31,126h39.78a0,0,0,0,1,0,0v12a0,0,0,0,1,0,0H480.31a6,6,0,0,1-6-6v0A6,6,0,0,1,480.31,126Z"/></clipPath><clipPath id="e"><path class="a" d="M129.51,323.88h0A12.49,12.49,0,0,1,142,336.37v12.51a0,0,0,0,1,0,0H117a0,0,0,0,1,0,0V336.37a12.49,12.49,0,0,1,12.49-12.49Z" transform="translate(127.93 -24.07) rotate(20.81)"/></clipPath><clipPath id="f"><path class="a" d="M79.56,342.18h59a0,0,0,0,1,0,0v4a2,2,0,0,1-2,2h-53a4,4,0,0,1-4-4v-2A0,0,0,0,1,79.56,342.18Z" transform="translate(129.73 -16.23) rotate(20.81)"/></clipPath><clipPath id="g"><path class="a" d="M89.49,327h0A12.49,12.49,0,0,1,102,339.49V352a0,0,0,0,1,0,0H77a0,0,0,0,1,0,0V339.49A12.49,12.49,0,0,1,89.49,327Z"/></clipPath><clipPath id="h"><path class="a" d="M44,352h59a0,0,0,0,1,0,0v4a2,2,0,0,1-2,2H48a4,4,0,0,1-4-4v-2A0,0,0,0,1,44,352Z"/></clipPath></defs><title>designer</title><path class="b" d="M82,221H9L4.89,159.4A40.7,40.7,0,0,1,45.49,116h0a40.7,40.7,0,0,1,40.6,43.4Z"/><path class="c" d="M16.24,209.27l-3.32-49.78a33.48,33.48,0,0,1,8.64-25.07,32.7,32.7,0,0,1,47.87,0,33.47,33.47,0,0,1,8.65,25.07l-3.32,49.78a4,4,0,0,1-4,3.73H20.23A4,4,0,0,1,16.24,209.27Z"/><rect class="b" y="221" width="90" height="9" rx="4.49"/><rect class="d" x="10" y="230" width="70" height="9" rx="4.49"/><rect class="c" x="40.5" y="336" width="7.5" height="66"/><rect class="b" x="38" y="239" width="14" height="103"/><rect class="c" x="21" y="402" width="49" height="7" rx="3.49"/><rect class="e" x="33" y="402" width="37" height="7" rx="3.49"/><path class="f" d="M126,85h7a0,0,0,0,1,0,0v89a0,0,0,0,1,0,0h-8a10,10,0,0,1-10-10V96A11,11,0,0,1,126,85Z" transform="translate(248 259) rotate(-180)"/><path class="c" d="M115,119V85h8a10,10,0,0,1,10,10v23.85C128,118.61,115.5,118.15,115,119Z"/><path class="g" d="M72.43,220H45A20,20,0,0,1,26.2,193.16l34.58-95A20,20,0,0,1,79.57,85H107a20,20,0,0,1,18.79,26.84l-34.58,95A20,20,0,0,1,72.43,220Z"/><path class="e" d="M77.92,180.25c-3.28,0-26.38.19-47.07.14L26.2,193.16A20,20,0,0,0,45,220H72.43a20,20,0,0,0,18.79-13.16L101,180.11C89.22,180.19,79.85,180.25,77.92,180.25Z"/><path class="c" d="M61.12,194.17q-17.61,0-35.23-.07A20,20,0,0,0,45,220H72.43a20,20,0,0,0,18.79-13.16l4.64-12.74Q78.49,194.18,61.12,194.17Z"/><path class="c" d="M89.5,79.5H101A14.49,14.49,0,0,1,115.5,94v0A14.49,14.49,0,0,1,101,108.5H89.5a0,0,0,0,1,0,0v-29A0,0,0,0,1,89.5,79.5Z" transform="translate(196.5 -8.5) rotate(90)"/><path class="f" d="M92,85h21a0,0,0,0,1,0,0v7.51A10.49,10.49,0,0,1,102.51,103h0A10.49,10.49,0,0,1,92,92.51V85A0,0,0,0,1,92,85Z"/><path class="h" d="M77,42h2a3,3,0,0,1,3,3v8a3,3,0,0,1-3,3H77a5,5,0,0,1-5-5V47A5,5,0,0,1,77,42Z"/><path class="f" d="M97,12h12a19,19,0,0,1,19,19V67a25,25,0,0,1-25,25h0A25,25,0,0,1,78,67V31A19,19,0,0,1,97,12Z"/><path class="c" d="M107,81h0A25,25,0,0,1,82,56V20c0-.23,0-.45,0-.68A18.94,18.94,0,0,0,78,31V67a25,25,0,0,0,25,25h0a25,25,0,0,0,24.83-22.18A25,25,0,0,1,107,81Z"/><path class="e" d="M109,12H97A19,19,0,0,0,78,31V45.51L82,46V37a19,19,0,0,1,19-19h12a18.91,18.91,0,0,1,13.53,5.67A19,19,0,0,0,109,12Z"/><rect class="e" x="92" y="35" width="10" height="5" rx="2.5"/><rect class="e" x="113" y="35" width="10" height="5" rx="2.5"/><circle class="e" cx="98.5" cy="48.5" r="2.5"/><circle class="e" cx="118.5" cy="48.5" r="2.5"/><path class="e" d="M110.62,59.27c.65.14,1.18.85,1.24,2a5.88,5.88,0,0,1-1.33,3.84,12.39,12.39,0,0,1-4.62,3.44,12.6,12.6,0,0,1-4.4,1.1,12,12,0,0,1-4.74-.68,12.62,12.62,0,0,1-6.3-5,11.25,11.25,0,0,1-1.12-2.25l-.28-.89.47.8a11.47,11.47,0,0,0,1.53,1.85,11.15,11.15,0,0,0,6.3,3,9,9,0,0,0,6.51-1.68,11.67,11.67,0,0,0,2.7-2.82,11.5,11.5,0,0,1,2-2A2.69,2.69,0,0,1,110.62,59.27Z"/><path class="e" d="M110.07,59.27a2.68,2.68,0,0,1,2.07.71,11.5,11.5,0,0,1,2,2,11.67,11.67,0,0,0,2.7,2.82,9,9,0,0,0,6.51,1.68,11.15,11.15,0,0,0,6.3-3,11,11,0,0,0,1.53-1.85l.47-.8-.28.89A11.68,11.68,0,0,1,130.23,64a12.7,12.7,0,0,1-6.31,5,12,12,0,0,1-4.74.68,12.6,12.6,0,0,1-4.4-1.1,12.39,12.39,0,0,1-4.62-3.44,5.88,5.88,0,0,1-1.33-3.84C108.89,60.12,109.42,59.41,110.07,59.27Z"/><rect class="h" x="108" y="51" width="5" height="12" rx="2.5"/><path class="c" d="M108,0h25a10,10,0,0,1,10,10V20a10,10,0,0,1-10,10H78a0,0,0,0,1,0,0v0A30,30,0,0,1,108,0Z"/><line class="i" x1="93" y1="140" x2="122" y2="165"/><circle class="f" cx="117.5" cy="164.5" r="11.5"/><rect class="j" x="17" y="174" width="540" height="10" rx="5"/><rect class="b" y="409" width="557" height="16" rx="5"/><path class="k" d="M449.44,238.48V237.4"/><g class="l"><path class="k" d="M8.83,177.84a61.14,61.14,0,0,0,52.53-16.4"/><path class="k" d="M29,188.32a61.57,61.57,0,0,1,46.72-10"/><path class="k" d="M135.71,162.2C121.57,181.57,96.4,192.26,72.64,189c26.39-3.91,57.31-13.92,79.5-28.72"/><path class="k" d="M130.94,190.41A63.48,63.48,0,0,0,162,174.6"/><path class="k" d="M148.08,191.38c10.42-.62,14.88-8.18,23-13.51,11.56-7.59,26.05-12.2,39.57-14.61"/><path class="k" d="M170.82,192.08a184.1,184.1,0,0,1,90.7-17.34"/><path class="k" d="M227,185.27a89.48,89.48,0,0,0,65.6-15.15"/><path class="k" d="M292,189c11.88-13,31.75-18,48.37-12.21"/><path class="k" d="M332.26,197.65a155.77,155.77,0,0,1,53.49-20.55"/><path class="k" d="M327.24,190.31a249.76,249.76,0,0,0,49.34-17.59"/><path class="k" d="M267.88,189.64,307,170.75"/><path class="k" d="M298.87,195a68.11,68.11,0,0,1,29.56-13"/><path class="k" d="M380,179.54a218,218,0,0,1,66.23-18.17"/><path class="k" d="M397.08,202.36A88.21,88.21,0,0,1,469.94,175"/><path class="k" d="M432.19,202.89a171.14,171.14,0,0,1,99.33-32.29"/><path class="k" d="M424.67,189.1a396.35,396.35,0,0,0,68.08-22.74"/><path class="k" d="M450.72,168.25c-3.33,9.64-12.62,16.26-22.43,19s-20.22,2.29-30.4,1.66-20.53-1.36-30.46.95c17.12-2.84,40.26-12.33,56.21-19.17"/><path class="k" d="M500.53,188.2A42.94,42.94,0,0,1,559,179.76c-2.26,12.7-17.29,21.41-29.43,17.05"/><path class="k" d="M480.65,189.76a50.53,50.53,0,0,1,20.65-11.68"/><path class="e" d="M59.54,187.66l69.14-20.45"/><path class="k" d="M107.05,186.23c20.87.82,41.72-11.08,51.63-29.46"/><path class="k" d="M62.1,183.32a56.07,56.07,0,0,0,68.06-28.89"/><path class="k" d="M169.65,186.52c15.26-14.67,39.82-18.66,58.95-9.58"/><path class="k" d="M216.17,185.07a78.09,78.09,0,0,0,65.13-34.93"/><path class="k" d="M352.46,181.93c-18.21-10.16-42.59-7.84-58.54,5.58"/><path class="k" d="M511.31,191.58c7.63-5.05,15.62-10.23,24.7-11.33s19.53,3.26,22.23,12"/></g><rect class="e" x="90.69" y="184" width="12" height="85"/><rect class="e" x="92.81" y="184" width="7" height="215"/><rect class="d" x="90.69" y="184" width="12" height="7"/><rect class="e" x="123.19" y="184" width="12" height="85"/><rect class="e" x="125.69" y="184" width="7" height="215"/><rect class="d" x="123.19" y="184" width="12" height="7"/><rect class="b" x="62.94" y="399" width="100" height="10" rx="5"/><rect class="m" x="78" y="399" width="84.94" height="10" rx="5"/><rect class="e" x="439.69" y="184" width="12" height="85"/><rect class="e" x="441.81" y="184" width="7" height="215"/><rect class="d" x="439.69" y="184" width="12" height="7"/><rect class="e" x="472.19" y="184" width="12" height="85"/><rect class="e" x="474.69" y="184" width="7" height="215"/><rect class="d" x="472.19" y="184" width="12" height="7"/><rect class="e" x="411.94" y="399" width="100" height="10" rx="5"/><rect class="m" x="427" y="399" width="84.94" height="10" rx="5"/><path class="f" d="M62,158h59a0,0,0,0,1,0,0v16a0,0,0,0,1,0,0H72a10,10,0,0,1-10-10v-6a0,0,0,0,1,0,0Z"/><rect class="h" x="268" y="169" width="53" height="5" rx="2.5"/><rect class="h" x="231" y="56" width="135" height="85" rx="10"/><rect class="g" x="243" y="56" width="123" height="85" rx="10"/><rect class="e" x="280" y="119" width="11" height="22"/><path class="h" d="M310,134v40H289.16V134c0-8.28-5-15-11.16-15h20.84C305,119,310,125.72,310,134Z"/><path class="m" d="M321,134v40H293V134a15,15,0,0,0-15-15h28A15,15,0,0,1,321,134Z"/><path class="h" d="M168.31,174h-55c-5.5,0-6.22-4.5-1.6-10l28.52-34c4.62-5.5,12.9-10,18.4-10h55c5.5,0,6.23,4.5,1.61,10L186.7,164C182.09,169.5,173.81,174,168.31,174Z"/><path class="g" d="M176.34,174h-55c-5.5,0-6.23-4.5-1.61-10l28.53-34c4.61-5.5,12.89-10,18.39-10h55c5.5,0,6.22,4.5,1.6,10l-28.52,34C190.12,169.5,181.84,174,176.34,174Z"/><path class="k" d="M186,173.5H171.83a8,8,0,0,1-7.62-5.54L156,142.5h31L193.63,163A8,8,0,0,1,186,173.5Z"/><ellipse class="n" cx="173.5" cy="150" rx="3.5" ry="2"/><path class="h" d="M391,150a5,5,0,0,0-5,5v5a5,5,0,0,0,5,5h7V150Zm5,12.5h-4.67a3.33,3.33,0,0,1-3.33-3.33v-3.34a3.33,3.33,0,0,1,3.33-3.33H396Z"/><path class="o" d="M396,147h28a2,2,0,0,1,2,2v14a9,9,0,0,1-9,9H403a9,9,0,0,1-9-9V149A2,2,0,0,1,396,147Z"/><path class="h" d="M399,147h28a2,2,0,0,1,2,2v14a9,9,0,0,1-9,9H406a9,9,0,0,1-9-9V149A2,2,0,0,1,399,147Z"/><path class="h" d="M402,172h19a0,0,0,0,1,0,0v1a1,1,0,0,1-1,1H403a1,1,0,0,1-1-1v-1A0,0,0,0,1,402,172Z"/><path class="n" d="M460,160h61a0,0,0,0,1,0,0v12a0,0,0,0,1,0,0H460a6,6,0,0,1-6-6v0a6,6,0,0,1,6-6Z"/><path class="n" d="M465,172a6,6,0,0,1-6-6v0a6,6,0,0,1,6-6h57a1,1,0,0,0,1-1h0a1,1,0,0,0-1-1H460a8,8,0,0,0-8,8.53,8.16,8.16,0,0,0,8.24,7.47H522a1,1,0,0,0,1-1h0a1,1,0,0,0-1-1Z"/><path class="e" d="M460,160h61a0,0,0,0,1,0,0v12a0,0,0,0,1,0,0H460a6,6,0,0,1-6-6v0a6,6,0,0,1,6-6Z"/><path class="p" d="M521,160v12H462a6,6,0,0,1-6-6v0a6,6,0,0,1,6-6Z"/><path class="q" d="M521,160v12H470a6,6,0,0,1-6-6v0a6,6,0,0,1,6-6Z"/><g class="r"><line class="s" x1="450" y1="162" x2="524" y2="162"/><line class="s" x1="449.5" y1="164.5" x2="523.5" y2="164.5"/><line class="s" x1="449.5" y1="167.5" x2="523.5" y2="167.5"/><line class="s" x1="449.5" y1="170.5" x2="523.5" y2="170.5"/></g><path class="n" d="M469.93,143h59.12a0,0,0,0,1,0,0v12a0,0,0,0,1,0,0H469.93a6,6,0,0,1-6-6v0A6,6,0,0,1,469.93,143Z" transform="translate(993 298) rotate(-180)"/><path class="t" d="M518.38,155a5.91,5.91,0,0,0,5.82-6v0a5.91,5.91,0,0,0-5.82-6H463a1,1,0,0,1-1-1h0a1,1,0,0,1,1-1h60.26a7.91,7.91,0,0,1,7.75,8.53,8,8,0,0,1-8,7.47H463a1,1,0,0,1-1-1h0a1,1,0,0,1,1-1Z"/><path class="e" d="M469.93,143h59.12a0,0,0,0,1,0,0v12a0,0,0,0,1,0,0H469.93a6,6,0,0,1-6-6v0A6,6,0,0,1,469.93,143Z" transform="translate(993 298) rotate(-180)"/><path class="p" d="M463.94,143v12h57.35a5.9,5.9,0,0,0,5.82-6v0a5.9,5.9,0,0,0-5.82-6Z"/><path class="q" d="M463.94,143v12h49.58a5.91,5.91,0,0,0,5.82-6v0a5.91,5.91,0,0,0-5.82-6Z"/><g class="u"><line class="v" x1="532.94" y1="145" x2="461.03" y2="145"/><line class="v" x1="533.43" y1="147.5" x2="461.51" y2="147.5"/><line class="v" x1="533.43" y1="150.5" x2="461.51" y2="150.5"/><line class="v" x1="533.43" y1="153.5" x2="461.51" y2="153.5"/></g><path class="n" d="M478.9,126h41.19a0,0,0,0,1,0,0v12a0,0,0,0,1,0,0H478.9a6,6,0,0,1-6-6v0a6,6,0,0,1,6-6Z"/><path class="w" d="M480.65,138c-2.33,0-4.22-2.68-4.22-6v0c0-3.31,1.89-6,4.22-6H520.8c.38,0,.7-.45.7-1h0c0-.55-.32-1-.7-1H477.13c-3.23,0-5.82,3.87-5.62,8.53.19,4.25,2.81,7.47,5.81,7.47H520.8c.38,0,.7-.45.7-1h0c0-.55-.32-1-.7-1Z"/><path class="e" d="M478.9,126h41.19a0,0,0,0,1,0,0v12a0,0,0,0,1,0,0H478.9a6,6,0,0,1-6-6v0a6,6,0,0,1,6-6Z"/><path class="p" d="M520.09,126v12H478.54c-2.34,0-4.22-2.68-4.22-6v0c0-3.31,1.88-6,4.22-6Z"/><path class="q" d="M520.09,126v12H484.17c-2.33,0-4.22-2.68-4.22-6v0c0-3.31,1.89-6,4.22-6Z"/><g class="x"><line class="y" x1="470.09" y1="128" x2="522.2" y2="128"/><line class="y" x1="469.74" y1="130.5" x2="521.85" y2="130.5"/><line class="y" x1="469.74" y1="133.5" x2="521.85" y2="133.5"/><line class="y" x1="469.74" y1="136.5" x2="521.85" y2="136.5"/></g><path class="f" d="M72,85h8a0,0,0,0,1,0,0v89a0,0,0,0,1,0,0H73a11,11,0,0,1-11-11V95A10,10,0,0,1,72,85Z"/><path class="c" d="M80,119V85H72A10,10,0,0,0,62,95v23.85C67,118.61,79.5,118.15,80,119Z"/><rect class="b" x="84.8" y="319.66" width="40" height="20" transform="translate(123.93 -15.73) rotate(20.81)"/><path class="z" d="M127.58,323.52h2A12.49,12.49,0,0,1,142.09,336v12.51a0,0,0,0,1,0,0h-27a0,0,0,0,1,0,0V336A12.49,12.49,0,0,1,127.58,323.52Z" transform="translate(127.75 -23.76) rotate(20.81)"/><g class="aa"><path class="s" d="M132.11,322.42c-5.46,1.85-9.77,6.24-12.67,11.22s-4.56,10.57-6.2,16.1"/><path class="s" d="M133.48,324l-10.9,29.23"/><path class="s" d="M135.85,322.92c-.4,3.55,1.13,7,1.72,10.53,1.36,8.18-2.37,16.25-6,23.7"/></g><path class="z" d="M79.56,342.18h59a0,0,0,0,1,0,0v4a2,2,0,0,1-2,2h-53a4,4,0,0,1-4-4v-2A0,0,0,0,1,79.56,342.18Z" transform="translate(129.73 -16.23) rotate(20.81)"/><g class="ab"><line class="s" x1="78.39" y1="333" x2="142.89" y2="357.51"/></g><path class="ac" d="M109,196h9a14,14,0,0,1,14,14V322.51A11.49,11.49,0,0,1,120.51,334h0A11.49,11.49,0,0,1,109,322.51V196a0,0,0,0,1,0,0Z" transform="translate(104.34 -25.66) rotate(21.27)"/><path class="m" d="M114.15,313l37-95.08a14,14,0,0,0-8-18.13l-8.38-3.26L92.71,304.69Q103.44,308.83,114.15,313Z"/><rect class="b" x="44" y="332" width="40" height="20"/><path class="z" d="M87.49,327h2A12.49,12.49,0,0,1,102,339.49V352a0,0,0,0,1,0,0H75a0,0,0,0,1,0,0V339.49A12.49,12.49,0,0,1,87.49,327Z"/><g class="ad"><path class="s" d="M87,325.53c-4.45,3.67-6.91,9.31-7.85,15S78.59,352,79,357.77"/><path class="s" d="M88.82,326.56l.19,31.2"/><path class="s" d="M90.64,324.67c.88,3.47,3.54,6.15,5.34,9.24,4.18,7.15,3.56,16,2.81,24.28"/></g><path class="z" d="M44,352h59a0,0,0,0,1,0,0v4a2,2,0,0,1-2,2H48a4,4,0,0,1-4-4v-2A0,0,0,0,1,44,352Z"/><g class="ae"><line class="s" x1="40.5" y1="354.5" x2="109.5" y2="354.5"/></g><path class="f" d="M44,203h9a14,14,0,0,1,14,14V329.51A11.49,11.49,0,0,1,55.51,341h0A11.49,11.49,0,0,1,44,329.51V203A0,0,0,0,1,44,203Z"/><path class="af" d="M67,319V217a14,14,0,0,0-14-14H44V319.06Z"/><rect class="c" x="57" y="197" width="80" height="23"/><path class="af" d="M45,197H55a12,12,0,0,1,12,12v12a0,0,0,0,1,0,0H45a12,12,0,0,1-12-12v0A12,12,0,0,1,45,197Z"/><path class="m" d="M128,197h10a12,12,0,0,1,12,12v12a0,0,0,0,1,0,0H128a12,12,0,0,1-12-12v0a12,12,0,0,1,12-12Z"/><rect class="ag" x="41" y="313" width="28" height="7" rx="3.49"/><path class="m" d="M108.49,197H137a0,0,0,0,1,0,0v23a0,0,0,0,1,0,0H108.49A11.49,11.49,0,0,1,97,208.51v0A11.49,11.49,0,0,1,108.49,197Z"/></svg>