<svg xmlns="http://www.w3.org/2000/svg" viewBox="0 0 727 727"><defs><style>.a{fill:none;stroke:#bf9408;stroke-miterlimit:10;stroke-width:3px;}</style></defs><title>dolphin_2</title><circle class="a" cx="363.5" cy="363.5" r="362"/><path class="a" d="M635.41,527c-17.76,0-17.76,20-35.53,20s-17.76-20-35.52-20-17.77,20-35.53,20-17.76-20-35.52-20-17.76,20-35.52,20S440,527,422.26,527s-17.76,20-35.52,20S369,527,351.21,527s-17.76,20-35.52,20-17.76-20-35.52-20-17.76,20-35.53,20-17.76-20-35.52-20-17.76,20-35.52,20-17.76-20-35.52-20-17.76,20-35.52,20S84.8,527,67,527c-10.34,0-14.67,6.78-20,12.45,61.84,111,180.37,186,316.44,186,133.21,0,249.61-72,312.47-179.11a20,20,0,0,1-5,.61C653.17,547,653.17,527,635.41,527Z"/><path class="a" d="M173.6,547c17.76,0,17.76-20,35.52-20s17.76,20,35.52,20,17.77-20,35.53-20,17.76,20,35.52,20,17.76-20,35.52-20,17.76,20,35.53,20,17.76-20,35.52-20,17.76,20,35.53,20,17.76-20,35.52-20,17.76,20,35.52,20a20.65,20.65,0,0,0,2.55-.16,184.58,184.58,0,0,0,1.14-20.34,181,181,0,0,0-362,0,183.23,183.23,0,0,0,1.15,20.4C172.27,547,172.91,547,173.6,547Z"/><ellipse class="a" cx="126.55" cy="236.58" rx="5.95" ry="5.92"/><path class="a" d="M689.5,466c-4.17-8-11.62-11.9-21.29-13s-18.58-2.27-25.11-5.91a68.3,68.3,0,0,1-8.35-5.18c1.66-27.87,1.16-85.7-18.84-150.23C597,228.14,558.66,158,497.41,114.14a25.09,25.09,0,0,1,2.32-8.16c4.5-11.29,16.19-16.3,24.83-17.91,8.34-1.81,14-1.8,14.33-4.36.37-2.24-4.63-7-16.15-11.09-11.88-4.17-30.15-5.69-47.84-.63-10,2.73-20.1,8.09-27,15q-7.29-2.9-14.89-5.31c-98.05-35.82-201.38,6.7-266.87,64.77C98.65,204.17,69,277.41,72.91,294.3a11.61,11.61,0,0,0,1.62,3.76c-5.13,6.58-7.39,12.7-5.12,15,2.89,2.89,12-1.57,20.44-10a58.63,58.63,0,0,0,4.69-5.27c2.64-1.36,5.2-2.93,7.67-4.39-2.47,1.46-5,3-7.67,4.38h0c-.79.4-1.59.79-2.39,1.16l-.48.21-.83.35c-.48.2-1,.39-1.46.57.49-.18,1-.37,1.46-.57-.48.2-1,.39-1.46.57q1.14-1.89,2.36-3.75l.69-1c.62-.92,1.24-1.84,1.88-2.76l.74-1c.69-1,1.39-1.92,2.1-2.87l.59-.78c.92-1.21,1.86-2.42,2.83-3.61h0c23.06-28.36,59.25-51.76,103.52-67a92,92,0,0,0,10,18.31c-14,5.38-27.21,11.29-39.34,17.35,4.13,9.27,10.72,18.82,17.89,27.18,28,32.42,60.45,33.93,61,28.86,4.47-5.56-26.12-9.55-32.07-40.56-1.08-7,.87-13.38,3.43-18.91,27.62,30.53,58.73,31.91,59.32,26.94,4.47-5.56-26.11-9.56-32.06-40.56-2.22-14.27,8.28-26.19,10.66-33.1A391.3,391.3,0,0,1,324,198c127.68,0,233.1,60.21,248.94,138.11h0a305.11,305.11,0,0,1,16.29,25.82c19.07,32.34,28.74,62.61,34.55,80.84-1.57,2.61-2.57,6.59-5,10.47-3.4,6.42-10.38,12.57-18.1,19.07S588.91,486,590.27,494c.92,7.76,7.23,16.41,9.88,19.66,3.68,3.59,1-.12,4-6.65,2.47-6.62,10.7-16.07,22.81-25.77a57.5,57.5,0,0,0,9.45-9.39,46.08,46.08,0,0,0,18.74,5.26c14.84,1.23,26.75,4.61,32.75,9,6.36,4,6.79,8.94,7.12,3.48C694.85,485.06,693.82,473.47,689.5,466Z"/><path class="a" d="M96.13,296.93l-1,.52Z"/><path class="a" d="M174.73,252.88h0c12.13-6.07,25.3-12,39.33-17.37a92.31,92.31,0,0,1-9.95-18.29h0c-41.49,14.28-75.89,35.74-99,61.73h0c-.76.86-1.52,1.73-2.26,2.6l0,.06c-.72.85-1.44,1.71-2.14,2.57l0,0h0c-1,1.19-1.91,2.4-2.83,3.61l-.59.78c-.71.95-1.41,1.91-2.1,2.87l-.74,1c-.64.92-1.26,1.84-1.88,2.76-.16.24-.32.49-.49.73l-.27.42c-.79,1.21-1.55,2.42-2.29,3.64h0c.6-.22,1.2-.47,1.8-.72l.48-.2.25-.11.43-.2c.73-.34,1.46-.69,2.19-1.06h0l.54-.29,1.09-.58,1-.56.93-.53,1.43-.84.33-.19,2.33-1.38h0c1.12-.66,2.23-1.31,3.31-1.9,8.92-4.86,17.83-9.74,26.49-15.05,13.19-8.08,26.75-15.68,40.63-22.51.69-.36,1.39-.71,2.09-1.06Z"/><path class="a" d="M572.94,336.11h0a105,105,0,0,0-2.81-10.83q-1.12-3.57-2.51-7.08a119,119,0,0,0-6.49-13.79,132.37,132.37,0,0,0-8.37-13.22,150.32,150.32,0,0,0-13-15.66q-2.85-3-5.91-6a189.64,189.64,0,0,0-16.52-14.11q-5.31-4-11-7.87A252.64,252.64,0,0,0,473.16,229q-4.47-2.08-9.08-4-6.93-3-14.17-5.61-9.66-3.54-19.84-6.54-12.72-3.75-26.18-6.61c-3.58-.76-7.21-1.47-10.86-2.13s-7.34-1.27-11.07-1.82q-13.95-2.08-28.47-3.17T324,198c-2.36,0-4.71,0-7.05.07l-1.49,0c-2.32.05-4.64.11-6.94.2l-.7,0q-3.35.13-6.67.33l-.88,0q-3.58.23-7.14.49l-.6.05q-7.38.58-14.63,1.44l-.28,0c-4.94.58-9.84,1.26-14.67,2h0c-1.61,4.65-6.88,11.57-9.49,20,45.92-12.28,98-16.74,151.45-3.19,75.75,16.59,132.66,66.24,168,116.61Z"/><path class="a" d="M98,295.87l-.71.4Z"/></svg>