<svg xmlns="http://www.w3.org/2000/svg" viewBox="0 0 478.06 467.04"><title>spiderweb</title><path d="M4.86,296.05l8.75-12.4,8.64-12.35q8.61-12.37,16.93-24.93c5.55-8.38,11-16.8,16.19-25.39l1.94-3.22,1.86-3.27L61,211.23l1.73-3.32c1.21-2.19,2.16-4.48,3.17-6.74.48-1.14.78-2.34,1.18-3.51a34.91,34.91,0,0,0,1-3.57c2.45-9.67,4.12-19.58,5.65-29.49s2.94-19.86,4.21-29.82c2.55-19.92,4.75-39.9,6.72-59.88l.13-1.34,1.35.18c12.54,1.7,25.19,3,37.83,3.82a260.51,260.51,0,0,0,37.89.23c1.58-.07,3.12-.34,4.68-.52l2.34-.3c.78-.09,1.53-.3,2.29-.44l2.29-.47,1.14-.23,1.11-.33c.74-.21,1.48-.42,2.2-.7s1.47-.5,2.17-.82a57.85,57.85,0,0,0,15.7-10,96.85,96.85,0,0,0,12.9-13.71,117.62,117.62,0,0,0,10.42-15.72l.53-1,.89.64c10.35,7.52,21,14.74,31.87,21.46,5.46,3.34,11,6.62,16.65,9.57a108.29,108.29,0,0,0,17.53,7.61,110.84,110.84,0,0,0,18.77,3.66q9.53,1.15,19.14,1.62c12.8.67,25.64.8,38.45.39l.58,0-.1.57c-1.16,7.13-2,14.33-2.75,21.54s-1.22,14.43-1.44,21.66c-.16,3.62-.12,7.23-.15,10.85.12,3.61.15,7.23.49,10.83.19,3.61.72,7.18,1.18,10.75l1,5.3a23.18,23.18,0,0,0,.66,2.61l.73,2.59c2,6.89,5.66,13.19,9.71,19.11a153,153,0,0,0,13.65,16.77c4.9,5.3,10.09,10.33,15.45,15.19s10.89,9.52,16.6,13.89l.65.5-.33.76c-4.17,9.45-7.92,19.13-11.3,28.91-1.68,4.9-3.28,9.82-4.71,14.79-.37,1.24-.71,2.48-1.05,3.73s-.71,2.5-1,3.72-.49,2.48-.72,3.72-.34,2.51-.41,3.79a88.27,88.27,0,0,0,.22,15.33c.48,5.11,1.25,10.21,2.24,15.26a219.69,219.69,0,0,0,8.1,29.83l.58,1.64-1.73.26a260,260,0,0,0-40.56,9.74,179.1,179.1,0,0,0-19.33,7.68,102,102,0,0,0-17.64,10.68,136.77,136.77,0,0,0-15,14.26c-4.7,5.12-9.05,10.56-13.28,16.09a340.87,340.87,0,0,0-23,34.88l-.82,1.44-1.37-.9q-19.7-13-40.12-24.92-10.18-5.94-20.57-11.55l-5.22-2.76L207,404.42c-1.75-.9-3.52-1.73-5.29-2.58s-3.54-1.72-5.35-2.42a134.56,134.56,0,0,0-22.26-7.22c-7.6-1.9-15.35-3.23-23.11-4.39s-15.6-2-23.43-2.59-15.71-1.06-23.55-1.17h-.57l-.31-.49A198.46,198.46,0,0,0,83.51,357,140.07,140.07,0,0,0,72,345.15c-1-.95-2.07-1.82-3.12-2.7s-2.09-1.79-3.21-2.59l-3.31-2.48L58.92,335Zm.3-.05,54.57,37.89,3.38,2.36,3.38,2.47c1.15.8,2.21,1.71,3.29,2.6S72,343.07,73,344a138.66,138.66,0,0,1,11.81,11.82,200.38,200.38,0,0,1,20.12,26.65L104,382c7.94,0,15.82.38,23.72.94s15.76,1.33,23.6,2.45,15.66,2.41,23.38,4.29a136.82,136.82,0,0,1,22.74,7.21c1.87.72,3.65,1.58,5.44,2.43s3.6,1.67,5.36,2.56l5.31,2.65,5.26,2.74q10.49,5.57,20.74,11.51,20.48,12,40.3,25l-2.19.53A344,344,0,0,1,300.84,409c8.52-11.2,17.73-22,28.87-30.95a105.16,105.16,0,0,1,18.27-11,183.74,183.74,0,0,1,19.72-7.76c6.7-2.19,13.51-4,20.36-5.67s13.74-3,20.76-4l-1.15,1.91a221.41,221.41,0,0,1-8.12-30.28c-1.93-10.27-3.21-20.77-2.31-31.34.09-1.32.3-2.63.46-3.95s.44-2.62.79-3.92.67-2.55,1-3.81.71-2.51,1.1-3.75c1.48-5,3.13-10,4.86-14.86,3.48-9.82,7.31-19.49,11.6-29l.32,1.25c-5.77-4.49-11.27-9.23-16.64-14.14s-10.54-10-15.44-15.43a152.72,152.72,0,0,1-13.65-17.06c-4.06-6-7.75-12.49-9.74-19.58l-.73-2.65a24.68,24.68,0,0,1-.64-2.67l-1-5.38c-.44-3.62-.94-7.23-1.1-10.87s-.31-7.27-.42-10.9,0-7.27.17-10.9c.25-7.26.77-14.5,1.51-21.73s1.65-14.42,2.84-21.59l.48.55c-12.85.33-25.7.3-38.54-.33q-9.63-.44-19.22-1.54a111.92,111.92,0,0,1-19-3.63,114.83,114.83,0,0,1-17.8-7.55c-5.75-2.91-11.31-6.15-16.83-9.44-11-6.64-21.73-13.75-32.22-21.21l1.42-.33a118.4,118.4,0,0,1-10.45,16.14,99.82,99.82,0,0,1-13,14.15,59.82,59.82,0,0,1-16.27,10.51c-.74.34-1.53.59-2.29.88s-1.55.52-2.33.75l-1.18.34-1.19.25-2.38.5c-.8.15-1.59.37-2.39.47l-2.39.31c-1.6.19-3.19.47-4.79.55a261.8,261.8,0,0,1-38.3-.11c-6.36-.38-12.71-.93-19-1.59s-12.66-1.41-19-2.31l1.48-1.16c-2,20-4.33,40-7,59.93C79,145.06,77.6,155,76,165s-3.4,19.85-6,29.64a36.59,36.59,0,0,1-1.1,3.66c-.42,1.2-.75,2.45-1.26,3.61-1.05,2.32-2.06,4.68-3.31,6.87l-1.78,3.35-1.9,3.27-1.91,3.26-2,3.22c-5.28,8.57-10.81,17-16.51,25.26s-11.46,16.53-17.32,24.7L14.1,284l-4.47,6.07-2.24,3-1.13,1.51-.56.75C5.53,295.58,5.35,295.78,5.16,296Z"/><path d="M110.15,97a47.17,47.17,0,0,1,2.47,6.66c.36,1.13.66,2.28.95,3.43s.57,2.3.81,3.46c.54,2.31.88,4.65,1.26,7l.42,3.53c.14,1.17.29,2.35.35,3.54a156.76,156.76,0,0,1-.48,28.41,189.89,189.89,0,0,1-5.12,28,122.16,122.16,0,0,1-11,26.21,263.75,263.75,0,0,1-15.07,24q-8.14,11.58-17,22.6c-6,7.32-12.09,14.52-18.57,21.39S36,288.72,29,295.13l-.5-2.5a179.65,179.65,0,0,1,28.13,12.44,129.28,129.28,0,0,1,13.06,8.2c1.07.72,2.06,1.55,3.1,2.33l1.53,1.17L75.77,318a49,49,0,0,1,5.63,5.44,63.91,63.91,0,0,1,4.7,6.23c1.41,2.17,2.74,4.39,3.94,6.67a111.37,111.37,0,0,1,6.21,14.07A168.72,168.72,0,0,1,104.16,380l-.3.06q-1.78-7.41-4.15-14.65c-1.56-4.83-3.25-9.61-5.21-14.27a129.14,129.14,0,0,0-6.57-13.61c-1.22-2.19-2.57-4.3-4-6.36a61.09,61.09,0,0,0-4.62-5.84,47.36,47.36,0,0,0-5.46-5l-1.45-1.19L70.92,318c-1-.74-2-1.53-3-2.22a142.35,142.35,0,0,0-12.83-7.9c-4.4-2.45-8.94-4.67-13.53-6.75s-9.28-4-14-5.71l-2.37-.84L27,292.93c7-6.22,13.71-12.81,20.31-19.48s13-13.55,19.18-20.67A270,270,0,0,0,84,230.62a181.86,181.86,0,0,0,14.49-24.15c2.12-4.19,4-8.49,5.69-12.84l1.19-3.29.59-1.65.51-1.67,1-3.34.87-3.37.44-1.69.35-1.72.73-3.44c.49-2.29,1-4.57,1.38-6.88l1.22-6.92.92-7a177,177,0,0,0,1.17-28c0-1.18-.12-2.34-.2-3.51l-.27-3.5c-.29-2.32-.5-4.65-.89-7a72.59,72.59,0,0,0-3.32-13.64Z"/><path d="M139.88,125a1.68,1.68,0,0,1,.55,0l.4,0,.81.07,1.61.13,3.22.23c2.15.15,4.3.26,6.45.36q6.47.3,12.92.27a174.75,174.75,0,0,0,25.68-1.83c1.07-.13,2.11-.38,3.16-.56a31.39,31.39,0,0,0,3.12-.68l3.06-.83c1-.34,2-.76,3-1.13a44,44,0,0,0,10.83-6.48,54.93,54.93,0,0,0,8.77-9.13A56.1,56.1,0,0,0,230,94.59l.64-1.43,1.17,1q9.92,8.46,20.26,16.43c3.45,2.64,6.92,5.27,10.46,7.76s7.13,5,10.84,7.12c.91.57,1.85,1.07,2.8,1.57l1.41.75,1.44.66c1,.44,1.93.88,2.94,1.23s2,.79,3,1.1a107.61,107.61,0,0,0,12.48,3.33,208,208,0,0,0,25.69,3.68l1.22.1-.06,1.2c-.42,8.72-.78,17.46-1,26.2s-.33,17.49.09,26.18c.08,1.09.1,2.18.22,3.25a31.2,31.2,0,0,0,.39,3.17,20.15,20.15,0,0,0,2.3,5.87A53.23,53.23,0,0,0,334.17,214a133.68,133.68,0,0,0,20.12,16.61l.37.25-.18.4c-2.55,5.45-4.87,11-7,16.69a119.5,119.5,0,0,0-5,17.32,52.07,52.07,0,0,0-.78,8.92,87.22,87.22,0,0,0,.51,9,113.91,113.91,0,0,0,3.4,17.69l.17.6-.61.16a169,169,0,0,0-26.4,9.92,138.34,138.34,0,0,0-12.43,6.64c-2,1.17-4,2.49-5.94,3.77a38.26,38.26,0,0,0-5.24,4.46,56.92,56.92,0,0,0-8.19,11.2,96.92,96.92,0,0,0-6,12.64c-1.71,4.36-3.18,8.82-4.45,13.33s-2.35,9.11-3.15,13.67l-.42,2.42L271.1,378q-11-10-22-20.08c-7.29-6.73-14.56-13.47-21.71-20.4-.89-.86-1.77-1.76-2.66-2.59s-1.75-1.57-2.69-2.3l-2.93-2.07L216,328.72a121.57,121.57,0,0,0-13.27-6.21,224.48,224.48,0,0,0-28.1-9l-.86-.22-.25-.8-8.86-27.66c-.09-.3-.18-.56-.27-.79a7.28,7.28,0,0,0-.28-.73,13.64,13.64,0,0,0-.75-1.41,16.8,16.8,0,0,0-2-2.61A32.12,32.12,0,0,0,156,274.9a67.28,67.28,0,0,0-12.51-6.52l-2.09-.82L143,266a76.35,76.35,0,0,0,6.3-7.17c2-2.5,3.83-5.15,5.61-7.82a103.22,103.22,0,0,0,8.91-17.06,94.08,94.08,0,0,0,5.34-18.47l.76-4.75c.14-1.58.31-3.16.3-4.76s0-3.19-.08-4.79-.24-3.19-.49-4.78a105.52,105.52,0,0,0-4.42-18.81,185.23,185.23,0,0,0-7-18.13q-3.93-8.9-8.55-17.49-2.31-4.29-4.75-8.51c-.82-1.41-1.64-2.81-2.49-4.19l-1.27-2.08-.65-1-.32-.52-.17-.25-.09-.15A.81.81,0,0,1,139.88,125Zm.26.16a.12.12,0,0,0,.09,0,.79.79,0,0,1,.08.11l.17.25.34.51.67,1,1.33,2.05c.88,1.37,1.74,2.75,2.6,4.14q2.55,4.16,5,8.41,4.83,8.49,9,17.35a175.19,175.19,0,0,1,7.39,18.13,107.94,107.94,0,0,1,4.81,19.06c.29,1.62.4,3.27.59,4.91s.23,3.3.17,5-.11,3.32-.23,5-.47,3.26-.71,4.89a97.33,97.33,0,0,1-5.28,19,107.31,107.31,0,0,1-9,17.58c-1.79,2.76-3.64,5.49-5.67,8.09a80.48,80.48,0,0,1-6.5,7.54l-.5-2.4a70,70,0,0,1,6.78,3,58,58,0,0,1,6.42,3.74,35.05,35.05,0,0,1,5.82,4.83,18.87,18.87,0,0,1,2.42,3.09,13.75,13.75,0,0,1,1,1.78,7.84,7.84,0,0,1,.38.95c.12.34.23.65.31.93l8.89,27.55-1.11-1a226.53,226.53,0,0,1,28.56,9A113,113,0,0,1,217.57,326l3.25,2,3.13,2.23c1,.8,2,1.71,3,2.56s1.76,1.74,2.64,2.61c7.07,6.92,14.3,13.7,21.54,20.47s14.53,13.48,21.84,20.18l-2.24.78c.88-4.75,2-9.34,3.36-13.93s2.88-9.09,4.67-13.52A97.76,97.76,0,0,1,285,336.47a58.72,58.72,0,0,1,8.69-11.5,40.33,40.33,0,0,1,5.62-4.63c2-1.28,4-2.58,6.09-3.74a137.85,137.85,0,0,1,12.68-6.52,169.36,169.36,0,0,1,26.78-9.65l-.44.77a127.18,127.18,0,0,1-3.29-17.92c-.29-3-.48-6.06-.47-9.11a52.59,52.59,0,0,1,.85-9.1,125.26,125.26,0,0,1,5.15-17.45c2.07-5.69,4.35-11.3,6.88-16.81l.19.65a136.46,136.46,0,0,1-20.44-16.62A54.69,54.69,0,0,1,325,204.48a22,22,0,0,1-2.57-6.27c-.26-1.15-.32-2.23-.46-3.33s-.19-2.2-.29-3.3c-.57-8.79-.58-17.56-.52-26.32s.25-17.52.6-26.29l1.16,1.3a209.75,209.75,0,0,1-26.07-3.59,110.43,110.43,0,0,1-12.79-3.36A57.44,57.44,0,0,1,272,127.73c-3.81-2.26-7.41-4.76-11-7.31s-7-5.2-10.49-7.88q-10.33-8.08-20.25-16.64l1.81-.43a54.89,54.89,0,0,1-6.93,11.24,56.43,56.43,0,0,1-9.26,9.34,45.62,45.62,0,0,1-11.4,6.58c-1,.37-2,.79-3.1,1.13l-3.2.82a32,32,0,0,1-3.21.64c-1.07.17-2.13.41-3.21.52A163.09,163.09,0,0,1,165.83,127q-6.48-.12-13-.59c-2.15-.14-4.3-.33-6.45-.54l-3.22-.33-1.61-.19-.8-.1-.41,0C140.29,125.23,140.26,125.17,140.14,125.11Z"/><path d="M199.9,179.93a1.12,1.12,0,0,1,.33,0l.24,0,.44,0,.88.08,1.76.14,3.53.25c2.35.14,4.7.27,7,.32s4.7.06,7,0a46.5,46.5,0,0,0,6.92-.72,11,11,0,0,0,1.65-.39,8.64,8.64,0,0,0,1.53-.56,8.52,8.52,0,0,0,2.5-2,22.16,22.16,0,0,0,3.45-5.82,59.9,59.9,0,0,0,3.69-13.36l.35-2.12,1.54,1.51c3.45,3.36,7,6.66,10.61,9.86a125.82,125.82,0,0,0,11.23,9l1.48,1c.49.31,1,.58,1.5.87a13.49,13.49,0,0,0,3.08,1.26,28.72,28.72,0,0,0,6.87.82,75.09,75.09,0,0,0,14.18-1.27l1.57-.28V180a76,76,0,0,0,1.5,14.59,32.3,32.3,0,0,0,2.19,6.86l.84,1.54c.34.46.65.94,1,1.39l1.22,1.27,1.36,1.18a88.46,88.46,0,0,0,12.46,7.95c4.36,2.38,8.82,4.62,13.34,6.68l.65.29-.4.58c-2.63,3.84-5.2,7.74-7.61,11.73-1.2,2-2.37,4-3.47,6.06a58.05,58.05,0,0,0-3,6.26,24.12,24.12,0,0,0-1.58,6.68c-.27,2.29-.4,4.62-.46,6.94-.11,4.65,0,9.32.27,14l0,.66-.67,0a139.53,139.53,0,0,0-15.44.57,68.7,68.7,0,0,0-7.59,1.11,23.37,23.37,0,0,0-7,2.45c-.25.15-.47.33-.71.49a8.09,8.09,0,0,0-.61.57c-.4.47-.83.9-1.21,1.4-.78,1-1.51,2-2.23,3.06-1.4,2.13-2.71,4.34-4,6.57-2.52,4.47-4.86,9.09-7.05,13.73l-.6,1.27-1.23-.71c-5.71-3.31-11.47-6.58-17.29-9.68q-4.37-2.34-8.8-4.49a78.47,78.47,0,0,0-9-3.79c-.37-.11-.75-.27-1.11-.35l-1.05-.22a4.78,4.78,0,0,0-1.06-.08,6.49,6.49,0,0,0-1.07,0,31.61,31.61,0,0,0-4.65.83c-3.13.75-6.25,1.78-9.35,2.85-6.19,2.15-12.33,4.63-18.35,7.26l-2.72,1.18.48-2.92c.53-3.17,1-6.38,1.37-9.58a75.76,75.76,0,0,0,.66-9.5,14.66,14.66,0,0,0-.91-4.32,37.41,37.41,0,0,0-1.82-4.32,63.59,63.59,0,0,0-4.84-8.19l-.81-1.17,1.15-.8a71.85,71.85,0,0,0,8.3-6.85,63.49,63.49,0,0,0,7.18-8,37.86,37.86,0,0,0,5.14-9.31,31.76,31.76,0,0,0,1.79-10.44,124.47,124.47,0,0,0-2.13-21.71c-.6-3.61-1.33-7.2-2.1-10.78-.38-1.79-.8-3.57-1.22-5.36l-.64-2.67-.33-1.33-.17-.67-.09-.35A1.82,1.82,0,0,1,199.9,179.93Zm.22.19a1.25,1.25,0,0,1,.14.21l.1.31.2.66.4,1.32.77,2.64q.75,2.66,1.44,5.32c.91,3.56,1.78,7.13,2.52,10.73a120.1,120.1,0,0,1,2.82,21.95,33.56,33.56,0,0,1-1.6,11.16,38.78,38.78,0,0,1-5.26,10,65.9,65.9,0,0,1-7.32,8.49,73.74,73.74,0,0,1-8.53,7.28l.34-2a66.28,66.28,0,0,1,5.23,8.51,35.1,35.1,0,0,1,2,4.65,17.77,17.77,0,0,1,1.12,5.19,81,81,0,0,1-.6,10c-.36,3.27-.8,6.51-1.31,9.76l-2.24-1.73c6.13-2.67,12.29-5.14,18.61-7.34a96.52,96.52,0,0,1,9.68-2.87,33.82,33.82,0,0,1,5.14-.85,8.11,8.11,0,0,1,1.4,0,6.64,6.64,0,0,1,1.42.12l1.37.3c.45.11.83.27,1.25.4a80.41,80.41,0,0,1,9.31,4q4.49,2.24,8.86,4.63,8.76,4.77,17.27,9.95l-1.83.55c2.32-4.68,4.74-9.27,7.38-13.78,1.33-2.24,2.7-4.47,4.21-6.63.77-1.07,1.56-2.13,2.42-3.15.42-.52.92-1,1.37-1.51.25-.24.56-.49.84-.72s.59-.42.9-.59a24.93,24.93,0,0,1,7.66-2.5,73.78,73.78,0,0,1,7.8-.95,140.19,140.19,0,0,1,15.61-.22l-.63.64c-.17-4.69-.25-9.37-.09-14.06.08-2.35.23-4.69.52-7a35.06,35.06,0,0,1,.6-3.5,21.11,21.11,0,0,1,1.11-3.4,101.93,101.93,0,0,1,6.52-12.48c2.4-4,4.87-8,7.47-11.89l.25.86c-4.61-2-9.15-4.08-13.61-6.36a89.5,89.5,0,0,1-13-7.79l-1.49-1.23c-.48-.45-.95-.93-1.42-1.4s-.82-1.07-1.23-1.61l-1-1.72a33.87,33.87,0,0,1-2.55-7.3A73.35,73.35,0,0,1,290.69,180l1.58,1.29a75.2,75.2,0,0,1-14.75,1.37,30.45,30.45,0,0,1-7.52-1,16.51,16.51,0,0,1-3.62-1.52c-.55-.32-1.11-.63-1.64-1l-1.55-1a129.81,129.81,0,0,1-11.38-9.3c-3.62-3.27-7.14-6.61-10.59-10.06l1.89-.62A61.34,61.34,0,0,1,238.93,172a24,24,0,0,1-3.92,6.19,8.87,8.87,0,0,1-4.85,2.92,12.87,12.87,0,0,1-1.8.39,43.32,43.32,0,0,1-7.16.49c-2.38,0-4.75-.1-7.11-.25s-4.72-.37-7.07-.61c-1.18-.13-2.35-.28-3.52-.43l-1.76-.24-.87-.12-.44-.07-.2,0S200.18,180.16,200.12,180.12Z"/><path d="M73.11,62.92q23.44,20.39,46.43,41.25c15.32,13.93,30.73,27.76,45.79,42l22.58,21.32c7.52,7.11,15.05,14.21,22.67,21.22s15.29,14,22.93,20.94l23.12,20.73-.05,0q11.63,8.9,23.2,17.86l23.12,18,23.09,18,23,18.12c15.31,12.12,30.51,24.37,45.74,36.59s30.34,24.58,45.37,37l-.18.24q-23.46-17.56-46.63-35.46c-15.43-11.95-30.9-23.87-46.26-35.92l-23-18.12-22.91-18.24-22.88-18.28q-11.43-9.15-22.8-18.38l0,0,0,0-22.63-21.26c-7.61-7-15.16-14.11-22.82-21.07s-15.35-13.89-23.08-20.77l-23.17-20.68c-15.44-13.8-30.53-28-45.71-42S87.78,77.55,72.91,63.14Z"/><path d="M213.16,0c4.12,19.15,8,38.35,11.73,57.57S232.36,96,235.74,115.3l5,29c1.64,9.65,3.29,19.3,5,28.94l2.66,14.44,2.75,14.43c1.8,9.62,3.76,19.21,5.65,28.82v.06q3.68,29.44,7.1,58.93c2.27,19.66,4.56,39.31,6.69,59l3.1,29.52,3,29.53c1.93,19.69,3.81,39.39,5.48,59.11l-.3,0c-2.66-19.61-5.12-39.24-7.52-58.88l-3.52-29.47-3.4-29.49c-2.2-19.66-4.24-39.34-6.31-59s-4-39.37-5.9-59.06v0c-1.7-9.64-3.32-19.3-5.1-28.92L247.5,187.8l-2.72-14.43c-1.85-9.62-3.79-19.22-5.73-28.81l-5.77-28.8c-3.79-19.22-7.15-38.51-10.65-57.77S215.91,19.41,212.86.05Z"/><path d="M80.9,406.92q21.28-22.59,43-44.71c14.51-14.74,28.93-29.56,43.71-44l22.18-21.69q11.11-10.83,22.1-21.79c7.33-7.29,14.54-14.7,21.81-22.05l21.63-22.25-.1.11c17.46-25.59,35.22-51,52.94-76.39q13.32-19,26.83-37.94l27.12-37.74-.06.09L374.42,57.2C378.58,50.12,382.68,43,386.88,36l.26.15c-3.8,7.28-7.7,14.5-11.54,21.76L363.92,79.53l0,0,0,.06-26.38,38.26Q324.21,137,310.81,156c-17.94,25.25-35.85,50.53-54.06,75.6l-.05.07-.05,0-22.12,21.75c-7.31,7.32-14.69,14.56-21.94,21.94s-14.47,14.77-21.65,22.21l-21.57,22.31c-14.39,14.86-29.13,29.37-43.79,44s-29.49,29-44.46,43.28Z"/><path d="M0,295.88l36.89-3.44q9.22-.85,18.43-1.79c6.14-.59,12.28-1.21,18.39-1.94,1.53-.18,3.06-.36,4.58-.58l2.28-.31c.75-.11,1.49-.27,2.24-.4L85,287l2.22-.53,2.23-.53,2.21-.62c5.89-1.67,11.73-3.57,17.52-5.65,11.58-4.15,23.09-8.64,34.41-13.48l.11-.05.09,0,20.56-3.71,10.27-1.9,10.26-1.95-.08,0c5.93-2.3,11.83-4.66,17.74-7s11.82-4.69,17.71-7.1L255.62,230l.11-.05.15,0,35.46-4.8,35.47-4.67.35-.05.34.11,27,8.95,7.21,2.39-7.55.73-.62.06c-.17-.07,0,.19-1-.27-1.7-2.75.83-2.9.24-2.8.21-.09.13-.06.21-.08l.32-.05.28,0,1-.1,2-.18,4-.32c2.66-.2,5.33-.38,8-.54,5.34-.32,10.68-.57,16-.67s10.7-.07,16.06.15a119.61,119.61,0,0,1,16.07,1.58c5.33,1.08,10.43,2.51,15.58,3.95s10.24,3,15.34,4.57,10.16,3.2,15.22,4.87,10.12,3.36,15.15,5.12l-.1.29q-15.31-4.53-30.71-8.8c-10.24-2.81-20.59-5.6-30.9-7.65a117.5,117.5,0,0,0-15.74-1.27c-5.28-.12-10.59,0-15.89.14s-10.6.45-15.9.82c-2.65.18-5.29.38-7.94.6l-4,.35-2,.19-1,.1-.22,0,.08,0s0,0,.27-.09c-.57.1,2-.06.3-2.81-1-.46-.76-.2-.91-.28h.13l.24,0-.34,3.12-27-9.05.69.07-35.53,4.32-35.53,4.2.25-.06-35.67,13.56c-5.94,2.26-11.86,4.6-17.79,6.9s-11.85,4.61-17.76,7h-.08l-10.24,2.05-10.23,2.1-20.44,4.29.2-.06c-11.25,5.18-22.62,10-34.26,14.31-5.83,2.1-11.72,4.08-17.74,5.68l-2.26.61-2.28.52-2.29.52-2.32.41c-.77.13-1.55.28-2.32.38l-2.31.3c-1.54.2-3.08.36-4.62.53q-9.24,1-18.47,1.73T37,294.17c-6.17.42-12.33.81-18.5,1.12S6.19,296,0,296.18Z"/><path d="M110,96.88l15.83,1.58,15.76,1.45a126.74,126.74,0,0,0,15.82.94A59.26,59.26,0,0,0,173,98.47a44.76,44.76,0,0,0,7.22-2.89c1.15-.61,2.32-1.19,3.48-1.78l3.41-2c4.48-2.7,8.78-5.7,13-8.81,8.47-6.23,16.54-13,24.49-20.1l.22.2A116,116,0,0,1,214.16,75a129.19,129.19,0,0,1-12.1,10.54,104.76,104.76,0,0,1-13.53,8.73l-3.59,1.85c-1.23.55-2.47,1.1-3.71,1.62a40.57,40.57,0,0,1-7.81,2.28,128.27,128.27,0,0,1-15.93,1.76c-5.31.34-10.66.7-16,.58a121.48,121.48,0,0,1-15.92-1.63A114.2,114.2,0,0,1,110,97.17Z"/></svg>